<svg xmlns="http://www.w3.org/2000/svg" xmlns:xlink="http://www.w3.org/1999/xlink" width="16" height="16" viewBox="0 0 16 16">
  <defs>
    <clipPath id="clip-path">
      <rect id="Ret창ngulo_1508" data-name="Ret창ngulo 1508" width="10" height="7.501" fill="#fff"/>
    </clipPath>
  </defs>
  <g id="Grupo_1013" data-name="Grupo 1013" transform="translate(-619 -712)">
    <rect id="Ret창ngulo_1501" data-name="Ret창ngulo 1501" width="16" height="16" rx="4" transform="translate(619 712)" fill="#b6ce26"/>
    <g id="Grupo_1011" data-name="Grupo 1011" transform="translate(622 716.249)">
      <g id="Grupo_1010" data-name="Grupo 1010" transform="translate(0 0)" clip-path="url(#clip-path)">
        <path id="Caminho_198" data-name="Caminho 198" d="M3.766,4.532c.422-.45.781-.851,1.159-1.234C5.882,2.332,6.839,1.366,7.812.416A1.243,1.243,0,0,1,9.953.933a1.172,1.172,0,0,1-.325,1.186q-2.494,2.51-5.006,5a1.191,1.191,0,0,1-1.754-.01Q1.6,5.881.368,4.608A1.216,1.216,0,0,1,.381,2.852a1.222,1.222,0,0,1,1.757.015c.537.516,1.044,1.065,1.628,1.665" transform="translate(0 0)" fill="#fff"/>
      </g>
    </g>
  </g>
</svg>
