<svg id="Grupo_995" data-name="Grupo 995" xmlns="http://www.w3.org/2000/svg" xmlns:xlink="http://www.w3.org/1999/xlink" width="32" height="30.62" viewBox="0 0 32 30.62">
  <defs>
    <clipPath id="clip-path">
      <rect id="Retângulo_1503" data-name="Retângulo 1503" width="32" height="30.62" fill="#57bdba"/>
    </clipPath>
  </defs>
  <g id="Grupo_994" data-name="Grupo 994" clip-path="url(#clip-path)">
    <path id="Caminho_186" data-name="Caminho 186" d="M32,12.432V28.18a.469.469,0,0,0-.04.084,2.81,2.81,0,0,1-3.032,2.353h-14.9q-5.577,0-11.153,0A2.791,2.791,0,0,1,.008,27.845q-.018-7.545,0-15.089a2.739,2.739,0,0,1,2.319-2.7c.52-.08,1.059-.03,1.587-.067a1.461,1.461,0,0,0,.611-.165Q12.667,5.137,20.8.434A2.833,2.833,0,0,1,24.837,1.55q2.37,4.127,4.765,8.24a.813.813,0,0,0,.411.321,2.828,2.828,0,0,1,1.713,1.5,6.867,6.867,0,0,1,.274.822M1.877,19.374V19.7q0,3.967,0,7.935A.97.97,0,0,0,2.99,28.743H29.011a.971.971,0,0,0,1.114-1.1q0-3.967,0-7.934v-.331ZM27.522,9.981c-.056-.107-.09-.18-.13-.249q-2.1-3.634-4.2-7.267a.959.959,0,0,0-1.5-.384L8.355,9.787c-.084.049-.164.105-.3.194ZM30.11,15.64H1.9v1.838H30.11ZM1.879,13.725H30.125c0-.236,0-.453,0-.67,0-.857-.329-1.185-1.189-1.185H3.073c-.1,0-.209,0-.312,0a.936.936,0,0,0-.879.893c-.014.311,0,.622,0,.958" transform="translate(0 0.001)" fill="#57bdba"/>
    <path id="Caminho_187" data-name="Caminho 187" d="M245.09,259.926a11.425,11.425,0,0,1-1.742-.015,2.768,2.768,0,0,1-2.3-2.989,2.808,2.808,0,0,1,2.751-2.563,24.016,24.016,0,0,1,3.054.065,2.736,2.736,0,0,1,2.3,2.952,2.817,2.817,0,0,1-2.69,2.6c-.458.015-.916,0-1.374,0,0-.016,0-.032,0-.049m.01-1.823h1.215a.945.945,0,0,0,.97-.93.934.934,0,0,0-.957-.941q-1.231-.013-2.462,0a.936.936,0,1,0,.018,1.871c.4.006.81,0,1.215,0" transform="translate(-220.91 -233.109)" fill="#57bdba"/>
    <path id="Caminho_188" data-name="Caminho 188" d="M49.115,254.449q1.513,0,3.026,0a.944.944,0,1,1,.013,1.874q-3.073,0-6.146,0A.942.942,0,1,1,46,254.449c1.04,0,2.08,0,3.12,0" transform="translate(-41.206 -233.204)" fill="#fff"/>
    <path id="Caminho_189" data-name="Caminho 189" d="M49.049,301.237q-1.513,0-3.026,0a.944.944,0,1,1-.009-1.874q3.073,0,6.147,0a.942.942,0,1,1,.009,1.874c-1.04,0-2.08,0-3.12,0" transform="translate(-41.206 -274.368)" fill="#fff"/>
    <path id="Caminho_190" data-name="Caminho 190" d="M209.9,56.823a1.019,1.019,0,0,1-.905-.689.883.883,0,0,1,.355-1.042q1.674-1,3.373-1.949a.907.907,0,0,1,1.216.366.92.92,0,0,1-.34,1.274c-.747.45-1.508.878-2.264,1.314-.306.177-.608.361-.92.525a4.612,4.612,0,0,1-.515.2" transform="translate(-191.502 -48.608)" fill="#fff"/>
  </g>
</svg>
