<svg id="Grupo_993" data-name="Grupo 993" xmlns="http://www.w3.org/2000/svg" xmlns:xlink="http://www.w3.org/1999/xlink" width="20.634" height="32" viewBox="0 0 20.634 32">
  <defs>
    <clipPath id="clip-path">
      <rect id="Retângulo_1502" data-name="Retângulo 1502" width="20.634" height="32" fill="#57bdba"/>
    </clipPath>
  </defs>
  <g id="Grupo_992" data-name="Grupo 992" clip-path="url(#clip-path)">
    <path id="Caminho_183" data-name="Caminho 183" d="M2.5,32a7.334,7.334,0,0,1-1.331-.563A2.75,2.75,0,0,1,0,28.983Q.005,20.344,0,11.7c0-.4,0-.792,0-1.187A2.83,2.83,0,0,1,2.947,7.562c1.063-.005,2.125,0,3.188,0h.378c-.245-.735-.474-1.445-.723-2.149-.033-.092-.156-.16-.249-.223Q3.075,3.512.606,1.84a2.6,2.6,0,0,1-.3-.223A.921.921,0,0,1,.161.422.923.923,0,0,1,1.315.083a2.459,2.459,0,0,1,.345.212c1.655,1.12,3.308,2.244,4.968,3.357a.93.93,0,0,0,.485.152q3.2.015,6.407,0a.93.93,0,0,0,.485-.153C15.7,2.515,17.385,1.365,19.077.224a.939.939,0,1,1,1.079,1.527c-.815.56-1.636,1.112-2.454,1.667-.879.6-1.762,1.186-2.633,1.792a.829.829,0,0,0-.287.379c-.23.644-.436,1.3-.659,1.972,1.191,0,2.347,0,3.5,0a2.748,2.748,0,0,1,2.7,1.6,3.133,3.133,0,0,1,.29,1.292q.027,9.327.009,18.654a2.787,2.787,0,0,1-2.415,2.851.348.348,0,0,0-.083.04ZM18.757,19.783V17.752q0-3.641,0-7.281a.936.936,0,0,0-.965-1.032q-2.047-.013-4.094,0a.35.35,0,0,0-.255.183c-.126.307-.214.63-.325.943a.977.977,0,0,1-1.032.739q-1.766.007-3.532,0a.976.976,0,0,1-1.034-.736c-.1-.294-.209-.589-.29-.889a.3.3,0,0,0-.35-.253c-1.281.009-2.563,0-3.844,0-.817,0-1.156.34-1.156,1.157q0,9.187,0,18.375c0,.818.339,1.157,1.156,1.158H17.6c.818,0,1.159-.339,1.159-1.154q0-4.594,0-9.187M7.9,5.7a.414.414,0,0,0,.007.1c.384,1.153.765,2.308,1.162,3.457a.349.349,0,0,0,.262.173c.436.018.874.012,1.311.007.288,0,.644.077.845-.061s.215-.5.3-.76c.323-.964.642-1.928.97-2.914Z" transform="translate(0 0)" fill="#57bdba"/>
    <path id="Caminho_184" data-name="Caminho 184" d="M94.09,215.83a2.812,2.812,0,1,1,.777-.012c.416.113.845.2,1.251.345a4.68,4.68,0,0,1,3.015,4.246.948.948,0,0,1-1.03,1.06q-3.656,0-7.311,0a.948.948,0,0,1-1.03-1.06,4.7,4.7,0,0,1,3.976-4.5c.1-.014.2-.042.351-.074m2.962,3.753a2.749,2.749,0,0,0-5.2,0Zm-1.669-6.547a.935.935,0,1,0-.939.932.944.944,0,0,0,.939-.932" transform="translate(-84.131 -197.034)" fill="#fff"/>
    <path id="Caminho_185" data-name="Caminho 185" d="M66.334,422.278c-1.844,0-3.688,0-5.532,0a.935.935,0,0,1-.94-1.286.919.919,0,0,1,.913-.586c.813,0,1.625,0,2.438,0h8.47c.1,0,.209,0,.312,0a.942.942,0,0,1,.918.921.93.93,0,0,1-.922.946c-.573.015-1.146,0-1.719,0H66.334" transform="translate(-56.035 -394.029)" fill="#57bdba"/>
  </g>
</svg>
