<svg width="110" height="170" viewBox="0 0 110 170" fill="none" xmlns="http://www.w3.org/2000/svg">
<path fill-rule="evenodd" clip-rule="evenodd" d="M5 0C2.23858 0 0 2.23858 0 5C0 7.76142 2.23858 10 5 10C7.76142 10 10 7.76142 10 5C10 2.23858 7.76142 0 5 0ZM25 0C22.2386 0 20 2.23858 20 5C20 7.76142 22.2386 10 25 10C27.7614 10 30 7.76142 30 5C30 2.23858 27.7614 0 25 0ZM40 5C40 2.23858 42.2386 0 45 0C47.7614 0 50 2.23858 50 5C50 7.76142 47.7614 10 45 10C42.2386 10 40 7.76142 40 5ZM65 0C62.2386 0 60 2.23858 60 5C60 7.76142 62.2386 10 65 10C67.7614 10 70 7.76142 70 5C70 2.23858 67.7614 0 65 0ZM80 5C80 2.23858 82.2386 0 85 0C87.7614 0 90 2.23858 90 5C90 7.76142 87.7614 10 85 10C82.2386 10 80 7.76142 80 5ZM105 0C102.239 0 100 2.23858 100 5C100 7.76142 102.239 10 105 10C107.761 10 110 7.76142 110 5C110 2.23858 107.761 0 105 0ZM0 25C0 22.2386 2.23858 20 5 20C7.76142 20 10 22.2386 10 25C10 27.7614 7.76142 30 5 30C2.23858 30 0 27.7614 0 25ZM25 20C22.2386 20 20 22.2386 20 25C20 27.7614 22.2386 30 25 30C27.7614 30 30 27.7614 30 25C30 22.2386 27.7614 20 25 20ZM40 25C40 22.2386 42.2386 20 45 20C47.7614 20 50 22.2386 50 25C50 27.7614 47.7614 30 45 30C42.2386 30 40 27.7614 40 25ZM65 20C62.2386 20 60 22.2386 60 25C60 27.7614 62.2386 30 65 30C67.7614 30 70 27.7614 70 25C70 22.2386 67.7614 20 65 20ZM80 25C80 22.2386 82.2386 20 85 20C87.7614 20 90 22.2386 90 25C90 27.7614 87.7614 30 85 30C82.2386 30 80 27.7614 80 25ZM105 20C102.239 20 100 22.2386 100 25C100 27.7614 102.239 30 105 30C107.761 30 110 27.7614 110 25C110 22.2386 107.761 20 105 20ZM0 45C0 42.2386 2.23858 40 5 40C7.76142 40 10 42.2386 10 45C10 47.7614 7.76142 50 5 50C2.23858 50 0 47.7614 0 45ZM25 40C22.2386 40 20 42.2386 20 45C20 47.7614 22.2386 50 25 50C27.7614 50 30 47.7614 30 45C30 42.2386 27.7614 40 25 40ZM40 45C40 42.2386 42.2386 40 45 40C47.7614 40 50 42.2386 50 45C50 47.7614 47.7614 50 45 50C42.2386 50 40 47.7614 40 45ZM65 40C62.2386 40 60 42.2386 60 45C60 47.7614 62.2386 50 65 50C67.7614 50 70 47.7614 70 45C70 42.2386 67.7614 40 65 40ZM80 45C80 42.2386 82.2386 40 85 40C87.7614 40 90 42.2386 90 45C90 47.7614 87.7614 50 85 50C82.2386 50 80 47.7614 80 45ZM105 40C102.239 40 100 42.2386 100 45C100 47.7614 102.239 50 105 50C107.761 50 110 47.7614 110 45C110 42.2386 107.761 40 105 40ZM0 65C0 62.2386 2.23858 60 5 60C7.76142 60 10 62.2386 10 65C10 67.7614 7.76142 70 5 70C2.23858 70 0 67.7614 0 65ZM25 60C22.2386 60 20 62.2386 20 65C20 67.7614 22.2386 70 25 70C27.7614 70 30 67.7614 30 65C30 62.2386 27.7614 60 25 60ZM40 65C40 62.2386 42.2386 60 45 60C47.7614 60 50 62.2386 50 65C50 67.7614 47.7614 70 45 70C42.2386 70 40 67.7614 40 65ZM65 60C62.2386 60 60 62.2386 60 65C60 67.7614 62.2386 70 65 70C67.7614 70 70 67.7614 70 65C70 62.2386 67.7614 60 65 60ZM80 65C80 62.2386 82.2386 60 85 60C87.7614 60 90 62.2386 90 65C90 67.7614 87.7614 70 85 70C82.2386 70 80 67.7614 80 65ZM105 60C102.239 60 100 62.2386 100 65C100 67.7614 102.239 70 105 70C107.761 70 110 67.7614 110 65C110 62.2386 107.761 60 105 60ZM0 85C0 82.2386 2.23858 80 5 80C7.76142 80 10 82.2386 10 85C10 87.7614 7.76142 90 5 90C2.23858 90 0 87.7614 0 85ZM25 80C22.2386 80 20 82.2386 20 85C20 87.7614 22.2386 90 25 90C27.7614 90 30 87.7614 30 85C30 82.2386 27.7614 80 25 80ZM40 85C40 82.2386 42.2386 80 45 80C47.7614 80 50 82.2386 50 85C50 87.7614 47.7614 90 45 90C42.2386 90 40 87.7614 40 85ZM65 80C62.2386 80 60 82.2386 60 85C60 87.7614 62.2386 90 65 90C67.7614 90 70 87.7614 70 85C70 82.2386 67.7614 80 65 80ZM80 85C80 82.2386 82.2386 80 85 80C87.7614 80 90 82.2386 90 85C90 87.7614 87.7614 90 85 90C82.2386 90 80 87.7614 80 85ZM105 80C102.239 80 100 82.2386 100 85C100 87.7614 102.239 90 105 90C107.761 90 110 87.7614 110 85C110 82.2386 107.761 80 105 80ZM0 105C0 102.239 2.23858 100 5 100C7.76142 100 10 102.239 10 105C10 107.761 7.76142 110 5 110C2.23858 110 0 107.761 0 105ZM25 100C22.2386 100 20 102.239 20 105C20 107.761 22.2386 110 25 110C27.7614 110 30 107.761 30 105C30 102.239 27.7614 100 25 100ZM40 105C40 102.239 42.2386 100 45 100C47.7614 100 50 102.239 50 105C50 107.761 47.7614 110 45 110C42.2386 110 40 107.761 40 105ZM65 100C62.2386 100 60 102.239 60 105C60 107.761 62.2386 110 65 110C67.7614 110 70 107.761 70 105C70 102.239 67.7614 100 65 100ZM80 105C80 102.239 82.2386 100 85 100C87.7614 100 90 102.239 90 105C90 107.761 87.7614 110 85 110C82.2386 110 80 107.761 80 105ZM105 100C102.239 100 100 102.239 100 105C100 107.761 102.239 110 105 110C107.761 110 110 107.761 110 105C110 102.239 107.761 100 105 100ZM0 125C0 122.239 2.23858 120 5 120C7.76142 120 10 122.239 10 125C10 127.761 7.76142 130 5 130C2.23858 130 0 127.761 0 125ZM25 120C22.2386 120 20 122.239 20 125C20 127.761 22.2386 130 25 130C27.7614 130 30 127.761 30 125C30 122.239 27.7614 120 25 120ZM40 125C40 122.239 42.2386 120 45 120C47.7614 120 50 122.239 50 125C50 127.761 47.7614 130 45 130C42.2386 130 40 127.761 40 125ZM65 120C62.2386 120 60 122.239 60 125C60 127.761 62.2386 130 65 130C67.7614 130 70 127.761 70 125C70 122.239 67.7614 120 65 120ZM80 125C80 122.239 82.2386 120 85 120C87.7614 120 90 122.239 90 125C90 127.761 87.7614 130 85 130C82.2386 130 80 127.761 80 125ZM105 120C102.239 120 100 122.239 100 125C100 127.761 102.239 130 105 130C107.761 130 110 127.761 110 125C110 122.239 107.761 120 105 120ZM0 145C0 142.239 2.23858 140 5 140C7.76142 140 10 142.239 10 145C10 147.761 7.76142 150 5 150C2.23858 150 0 147.761 0 145ZM25 140C22.2386 140 20 142.239 20 145C20 147.761 22.2386 150 25 150C27.7614 150 30 147.761 30 145C30 142.239 27.7614 140 25 140ZM40 145C40 142.239 42.2386 140 45 140C47.7614 140 50 142.239 50 145C50 147.761 47.7614 150 45 150C42.2386 150 40 147.761 40 145ZM65 140C62.2386 140 60 142.239 60 145C60 147.761 62.2386 150 65 150C67.7614 150 70 147.761 70 145C70 142.239 67.7614 140 65 140ZM80 145C80 142.239 82.2386 140 85 140C87.7614 140 90 142.239 90 145C90 147.761 87.7614 150 85 150C82.2386 150 80 147.761 80 145ZM105 140C102.239 140 100 142.239 100 145C100 147.761 102.239 150 105 150C107.761 150 110 147.761 110 145C110 142.239 107.761 140 105 140ZM0 165C0 162.239 2.23858 160 5 160C7.76142 160 10 162.239 10 165C10 167.761 7.76142 170 5 170C2.23858 170 0 167.761 0 165ZM25 160C22.2386 160 20 162.239 20 165C20 167.761 22.2386 170 25 170C27.7614 170 30 167.761 30 165C30 162.239 27.7614 160 25 160ZM40 165C40 162.239 42.2386 160 45 160C47.7614 160 50 162.239 50 165C50 167.761 47.7614 170 45 170C42.2386 170 40 167.761 40 165ZM65 160C62.2386 160 60 162.239 60 165C60 167.761 62.2386 170 65 170C67.7614 170 70 167.761 70 165C70 162.239 67.7614 160 65 160ZM80 165C80 162.239 82.2386 160 85 160C87.7614 160 90 162.239 90 165C90 167.761 87.7614 170 85 170C82.2386 170 80 167.761 80 165ZM105 160C102.239 160 100 162.239 100 165C100 167.761 102.239 170 105 170C107.761 170 110 167.761 110 165C110 162.239 107.761 160 105 160Z" fill="#020202"/>
</svg>
