<svg width="170" height="110" viewBox="0 0 170 110" fill="none" xmlns="http://www.w3.org/2000/svg">
<path fill-rule="evenodd" clip-rule="evenodd" d="M170 5C170 2.23858 167.761 0 165 0C162.239 0 160 2.23858 160 5C160 7.76142 162.239 10 165 10C167.761 10 170 7.76142 170 5ZM170 25C170 22.2386 167.761 20 165 20C162.239 20 160 22.2386 160 25C160 27.7614 162.239 30 165 30C167.761 30 170 27.7614 170 25ZM165 40C167.761 40 170 42.2386 170 45C170 47.7614 167.761 50 165 50C162.239 50 160 47.7614 160 45C160 42.2386 162.239 40 165 40ZM170 65C170 62.2386 167.761 60 165 60C162.239 60 160 62.2386 160 65C160 67.7614 162.239 70 165 70C167.761 70 170 67.7614 170 65ZM165 80C167.761 80 170 82.2386 170 85C170 87.7614 167.761 90 165 90C162.239 90 160 87.7614 160 85C160 82.2386 162.239 80 165 80ZM170 105C170 102.239 167.761 100 165 100C162.239 100 160 102.239 160 105C160 107.761 162.239 110 165 110C167.761 110 170 107.761 170 105ZM145 0C147.761 0 150 2.23858 150 5C150 7.76142 147.761 10 145 10C142.239 10 140 7.76142 140 5C140 2.23858 142.239 0 145 0ZM150 25C150 22.2386 147.761 20 145 20C142.239 20 140 22.2386 140 25C140 27.7614 142.239 30 145 30C147.761 30 150 27.7614 150 25ZM145 40C147.761 40 150 42.2386 150 45C150 47.7614 147.761 50 145 50C142.239 50 140 47.7614 140 45C140 42.2386 142.239 40 145 40ZM150 65C150 62.2386 147.761 60 145 60C142.239 60 140 62.2386 140 65C140 67.7614 142.239 70 145 70C147.761 70 150 67.7614 150 65ZM145 80C147.761 80 150 82.2386 150 85C150 87.7614 147.761 90 145 90C142.239 90 140 87.7614 140 85C140 82.2386 142.239 80 145 80ZM150 105C150 102.239 147.761 100 145 100C142.239 100 140 102.239 140 105C140 107.761 142.239 110 145 110C147.761 110 150 107.761 150 105ZM125 0C127.761 0 130 2.23858 130 5C130 7.76142 127.761 10 125 10C122.239 10 120 7.76142 120 5C120 2.23858 122.239 0 125 0ZM130 25C130 22.2386 127.761 20 125 20C122.239 20 120 22.2386 120 25C120 27.7614 122.239 30 125 30C127.761 30 130 27.7614 130 25ZM125 40C127.761 40 130 42.2386 130 45C130 47.7614 127.761 50 125 50C122.239 50 120 47.7614 120 45C120 42.2386 122.239 40 125 40ZM130 65C130 62.2386 127.761 60 125 60C122.239 60 120 62.2386 120 65C120 67.7614 122.239 70 125 70C127.761 70 130 67.7614 130 65ZM125 80C127.761 80 130 82.2386 130 85C130 87.7614 127.761 90 125 90C122.239 90 120 87.7614 120 85C120 82.2386 122.239 80 125 80ZM130 105C130 102.239 127.761 100 125 100C122.239 100 120 102.239 120 105C120 107.761 122.239 110 125 110C127.761 110 130 107.761 130 105ZM105 0C107.761 0 110 2.23858 110 5C110 7.76142 107.761 10 105 10C102.239 10 100 7.76142 100 5C100 2.23858 102.239 0 105 0ZM110 25C110 22.2386 107.761 20 105 20C102.239 20 100 22.2386 100 25C100 27.7614 102.239 30 105 30C107.761 30 110 27.7614 110 25ZM105 40C107.761 40 110 42.2386 110 45C110 47.7614 107.761 50 105 50C102.239 50 100 47.7614 100 45C100 42.2386 102.239 40 105 40ZM110 65C110 62.2386 107.761 60 105 60C102.239 60 100 62.2386 100 65C100 67.7614 102.239 70 105 70C107.761 70 110 67.7614 110 65ZM105 80C107.761 80 110 82.2386 110 85C110 87.7614 107.761 90 105 90C102.239 90 100 87.7614 100 85C100 82.2386 102.239 80 105 80ZM110 105C110 102.239 107.761 100 105 100C102.239 100 100 102.239 100 105C100 107.761 102.239 110 105 110C107.761 110 110 107.761 110 105ZM85 0C87.7614 0 90 2.23858 90 5C90 7.76142 87.7614 10 85 10C82.2386 10 80 7.76142 80 5C80 2.23858 82.2386 0 85 0ZM90 25C90 22.2386 87.7614 20 85 20C82.2386 20 80 22.2386 80 25C80 27.7614 82.2386 30 85 30C87.7614 30 90 27.7614 90 25ZM85 40C87.7614 40 90 42.2386 90 45C90 47.7614 87.7614 50 85 50C82.2386 50 80 47.7614 80 45C80 42.2386 82.2386 40 85 40ZM90 65C90 62.2386 87.7614 60 85 60C82.2386 60 80 62.2386 80 65C80 67.7614 82.2386 70 85 70C87.7614 70 90 67.7614 90 65ZM85 80C87.7614 80 90 82.2386 90 85C90 87.7614 87.7614 90 85 90C82.2386 90 80 87.7614 80 85C80 82.2386 82.2386 80 85 80ZM90 105C90 102.239 87.7614 100 85 100C82.2386 100 80 102.239 80 105C80 107.761 82.2386 110 85 110C87.7614 110 90 107.761 90 105ZM65 0C67.7614 0 70 2.23858 70 5C70 7.76142 67.7614 10 65 10C62.2386 10 60 7.76142 60 5C60 2.23858 62.2386 0 65 0ZM70 25C70 22.2386 67.7614 20 65 20C62.2386 20 60 22.2386 60 25C60 27.7614 62.2386 30 65 30C67.7614 30 70 27.7614 70 25ZM65 40C67.7614 40 70 42.2386 70 45C70 47.7614 67.7614 50 65 50C62.2386 50 60 47.7614 60 45C60 42.2386 62.2386 40 65 40ZM70 65C70 62.2386 67.7614 60 65 60C62.2386 60 60 62.2386 60 65C60 67.7614 62.2386 70 65 70C67.7614 70 70 67.7614 70 65ZM65 80C67.7614 80 70 82.2386 70 85C70 87.7614 67.7614 90 65 90C62.2386 90 60 87.7614 60 85C60 82.2386 62.2386 80 65 80ZM70 105C70 102.239 67.7614 100 65 100C62.2386 100 60 102.239 60 105C60 107.761 62.2386 110 65 110C67.7614 110 70 107.761 70 105ZM45 0C47.7614 0 50 2.23858 50 5C50 7.76142 47.7614 10 45 10C42.2386 10 40 7.76142 40 5C40 2.23858 42.2386 0 45 0ZM50 25C50 22.2386 47.7614 20 45 20C42.2386 20 40 22.2386 40 25C40 27.7614 42.2386 30 45 30C47.7614 30 50 27.7614 50 25ZM45 40C47.7614 40 50 42.2386 50 45C50 47.7614 47.7614 50 45 50C42.2386 50 40 47.7614 40 45C40 42.2386 42.2386 40 45 40ZM50 65C50 62.2386 47.7614 60 45 60C42.2386 60 40 62.2386 40 65C40 67.7614 42.2386 70 45 70C47.7614 70 50 67.7614 50 65ZM45 80C47.7614 80 50 82.2386 50 85C50 87.7614 47.7614 90 45 90C42.2386 90 40 87.7614 40 85C40 82.2386 42.2386 80 45 80ZM50 105C50 102.239 47.7614 100 45 100C42.2386 100 40 102.239 40 105C40 107.761 42.2386 110 45 110C47.7614 110 50 107.761 50 105ZM25 0C27.7614 0 30 2.23858 30 5C30 7.76142 27.7614 10 25 10C22.2386 10 20 7.76142 20 5C20 2.23858 22.2386 0 25 0ZM30 25C30 22.2386 27.7614 20 25 20C22.2386 20 20 22.2386 20 25C20 27.7614 22.2386 30 25 30C27.7614 30 30 27.7614 30 25ZM25 40C27.7614 40 30 42.2386 30 45C30 47.7614 27.7614 50 25 50C22.2386 50 20 47.7614 20 45C20 42.2386 22.2386 40 25 40ZM30 65C30 62.2386 27.7614 60 25 60C22.2386 60 20 62.2386 20 65C20 67.7614 22.2386 70 25 70C27.7614 70 30 67.7614 30 65ZM25 80C27.7614 80 30 82.2386 30 85C30 87.7614 27.7614 90 25 90C22.2386 90 20 87.7614 20 85C20 82.2386 22.2386 80 25 80ZM30 105C30 102.239 27.7614 100 25 100C22.2386 100 20 102.239 20 105C20 107.761 22.2386 110 25 110C27.7614 110 30 107.761 30 105ZM5 0C7.76143 0 10 2.23858 10 5C10 7.76142 7.76143 10 5 10C2.23857 10 0 7.76142 0 5C0 2.23858 2.23857 0 5 0ZM10 25C10 22.2386 7.76143 20 5 20C2.23857 20 0 22.2386 0 25C0 27.7614 2.23857 30 5 30C7.76143 30 10 27.7614 10 25ZM5 40C7.76143 40 10 42.2386 10 45C10 47.7614 7.76143 50 5 50C2.23857 50 0 47.7614 0 45C0 42.2386 2.23857 40 5 40ZM10 65C10 62.2386 7.76143 60 5 60C2.23857 60 0 62.2386 0 65C0 67.7614 2.23857 70 5 70C7.76143 70 10 67.7614 10 65ZM5 80C7.76143 80 10 82.2386 10 85C10 87.7614 7.76143 90 5 90C2.23857 90 0 87.7614 0 85C0 82.2386 2.23857 80 5 80ZM10 105C10 102.239 7.76143 100 5 100C2.23857 100 0 102.239 0 105C0 107.761 2.23857 110 5 110C7.76143 110 10 107.761 10 105Z" fill="#24282A"/>
</svg>
