<svg width="105" height="105" viewBox="0 0 105 105" fill="none" xmlns="http://www.w3.org/2000/svg">
<path d="M52.5 96.25C28.3375 96.25 8.75 76.6625 8.75 52.5C8.75 28.3375 28.3375 8.75 52.5 8.75C76.6625 8.75 96.25 28.3375 96.25 52.5C96.2235 76.6515 76.6515 96.2235 52.5 96.25ZM17.5 53.2525C17.707 72.5079 33.4298 87.9793 52.6861 87.8762C71.9424 87.7722 87.498 72.1328 87.498 52.8762C87.498 33.6197 71.9424 17.9803 52.6861 17.8762C33.4298 17.7733 17.707 33.2446 17.5 52.5V53.2525ZM43.75 72.1875V32.8125L70 52.5L43.75 72.1875Z" fill="#F4F6FD"/>
</svg>
