<svg width="109" height="109" viewBox="0 0 109 109" fill="none" xmlns="http://www.w3.org/2000/svg">
<g clip-path="url(#clip0)">
<path d="M69.9669 82.1823C70.847 82.1823 71.5605 82.8956 71.5605 83.7759V92.1689C71.5605 93.0492 70.847 93.7626 69.9669 93.7626C69.0867 93.7626 68.3732 93.0492 68.3732 92.1689V83.7759C68.3732 82.8956 69.0867 82.1823 69.9669 82.1823Z" fill="#979797"/>
<path d="M39.1182 82.1823C39.9984 82.1823 40.7119 82.8956 40.7119 83.7759V92.1689C40.7119 93.0492 39.9984 93.7626 39.1182 93.7626C38.2381 93.7626 37.5246 93.0492 37.5246 92.1689V83.7759C37.5246 82.8956 38.2381 82.1823 39.1182 82.1823Z" fill="#979797"/>
<path d="M8.15147 76.6184L13.4877 74.4775V73.1146C12.4402 72.5324 11.4997 71.7749 10.7082 70.8807C7.33274 71.2791 4.1031 69.9317 2.01241 67.221C-0.149683 64.4178 -0.599525 60.8053 0.808862 57.5573L3.20511 52.0322C3.38531 51.6169 3.50919 51.179 3.57379 50.7311C4.09014 47.1421 5.88377 43.8579 8.62426 41.4835C11.3648 39.1089 14.8708 37.8014 18.4968 37.8014C22.1227 37.8014 25.6288 39.1089 28.3693 41.4835C31.1096 43.8579 32.9034 47.1419 33.4198 50.7311C33.4844 51.1792 33.6083 51.6172 33.7885 52.0322L36.1845 57.5573C37.5929 60.805 37.143 64.4176 34.981 67.221C33.1314 69.6189 30.3912 70.9553 27.4471 70.9551C27.0674 70.9551 26.6838 70.9326 26.2984 70.8873C25.5802 71.7018 24.7378 72.4032 23.7997 72.9616V74.4773L29.1358 76.6184C29.4836 76.758 29.8232 76.9159 30.1542 77.0905C31.1867 75.1915 32.6608 73.5309 34.495 72.2693L41.4453 67.4894C41.4052 66.6116 41.7562 65.7274 42.4712 65.1207L45.2955 62.7243C45.5632 62.4969 45.8641 62.3252 46.182 62.2085V58.9821C43.1967 56.8168 41.0799 53.527 40.4594 49.7383H40.2894C37.2508 49.7383 34.7787 47.2662 34.7787 44.2278C34.7787 42.9305 35.2304 41.7372 35.9833 40.7948L34.8441 32.6966C34.023 26.8586 38.0988 21.4038 43.9302 20.5364L44.1569 20.5028C46.0215 17.4595 48.9095 15.2638 52.3746 14.2813L52.7917 14.1629C57.3857 12.8604 62.2998 13.6379 66.2738 16.2965C67.0054 16.7859 67.2017 17.7757 66.7124 18.5071C66.223 19.2385 65.2334 19.435 64.5016 18.9455C61.3056 16.8074 57.3545 16.182 53.6612 17.2294L53.2441 17.3477C50.3447 18.1699 47.9645 20.0859 46.5421 22.7429C45.5636 24.5709 45.1316 26.5813 45.2564 28.5923L46.3367 27.6637C47.3241 26.815 48.7761 26.7925 49.7888 27.6106L51.2059 28.7553H59.2952C64.5443 28.7553 68.815 33.0259 68.815 38.2751V38.7177C69.2376 38.7192 69.6486 38.7698 70.0438 38.8618C71.8455 33.7896 71.3374 28.0749 68.6295 23.4003C68.1883 22.6385 68.448 21.6636 69.2096 21.2223C69.9711 20.7814 70.946 21.0408 71.3874 21.8024C74.6623 27.4559 75.1933 34.4067 72.8389 40.4899C73.7482 41.4729 74.3051 42.7863 74.3051 44.2278C74.3051 47.2662 71.833 49.7383 68.7944 49.7383H68.6244C68.0039 53.527 65.8871 56.8168 62.9018 58.9821V62.2085C63.2197 62.325 63.5206 62.4969 63.7881 62.724L66.6125 65.1207C67.3275 65.7274 67.6786 66.6118 67.6384 67.4894L74.5888 72.2693C76.0012 73.2406 77.2005 74.4484 78.149 75.8196C78.7638 75.4801 79.4044 75.1898 80.0678 74.9548L84.7868 73.2833V72.0273C82.3831 70.5422 80.6552 68.0667 80.1739 65.1743H79.4607C76.6646 65.1743 74.3899 62.8996 74.3899 60.1036C74.3899 58.8482 74.8493 57.6991 75.6077 56.8126L75.3231 53.4444C74.9277 48.5941 77.0441 43.9932 80.9847 41.138C84.9254 38.2823 89.9565 37.7037 94.4426 39.5898L97.6191 40.9253C102.538 42.0111 105.825 46.7241 105.123 51.7304L104.412 56.7962C105.179 57.6848 105.644 58.8406 105.644 60.1036C105.644 62.8996 103.369 65.1743 100.573 65.1743H99.8601C99.41 67.8791 97.8692 70.2184 95.7056 71.7251V73.2833L100.425 74.9546C101.085 75.1887 101.737 75.482 102.36 75.8266C103.13 76.2525 103.409 77.2221 102.983 77.9923C102.693 78.5183 102.148 78.8151 101.587 78.8151C101.326 78.8151 101.062 78.7509 100.818 78.6158C100.347 78.3557 99.8571 78.1347 99.3609 77.959L95.2832 76.5147C94.4575 78.4828 92.5111 79.8686 90.2466 79.8686C87.982 79.8686 86.0356 78.4828 85.2099 76.5147L81.1322 77.9592C80.6192 78.1407 80.1241 78.3665 79.6496 78.6317C80.2827 80.2365 80.622 81.9657 80.622 83.7402V93.1948C80.622 94.0751 79.9085 94.7884 79.0283 94.7884C78.1482 94.7884 77.4346 94.0751 77.4346 93.1948V83.7402C77.4346 80.2052 75.6956 76.8989 72.783 74.8957L66.1457 70.331L63.4251 73.9684C62.8404 74.7504 61.9235 75.1909 60.9777 75.1909C60.6832 75.1909 60.3857 75.1482 60.0948 75.0595L56.1359 73.8547V93.862C56.1359 94.7423 55.4223 95.4557 54.5422 95.4557C53.6621 95.4557 52.9485 94.7423 52.9485 93.862V73.8547L48.9892 75.0598C48.6983 75.1482 48.4012 75.1909 48.1067 75.1909C47.1611 75.1909 46.244 74.7502 45.6592 73.9684L42.9389 70.331L36.3016 74.8957C33.3888 76.8989 31.65 80.2052 31.65 83.7402V93.1948C31.65 94.0751 30.9364 94.7884 30.0563 94.7884C29.1761 94.7884 28.4626 94.0751 28.4626 93.1948V83.7402C28.4626 82.485 28.6328 81.2524 28.9558 80.0701C28.6328 79.8816 28.2968 79.7163 27.9494 79.5769L23.322 77.7201C22.5022 79.4847 20.7141 80.7118 18.6438 80.7118C16.5735 80.7118 14.7854 79.4849 13.9656 77.7204L9.33801 79.5769C6.41181 80.7507 4.52128 83.5464 4.52128 86.6991V89.3967C4.52128 90.2771 3.80774 90.9904 2.9276 90.9904C2.04746 90.9904 1.33392 90.2771 1.33392 89.3967V86.6991C1.33413 82.2368 4.01024 78.2801 8.15147 76.6184V76.6184ZM71.1184 44.2276C71.1184 42.9535 70.0872 41.9165 68.8156 41.9053V46.5495C70.0869 46.5384 71.1184 45.5017 71.1184 44.2276ZM79.4612 61.9867H80.0366V58.2197H79.4612C78.4225 58.2197 77.5777 59.0647 77.5777 60.1032C77.5777 61.1416 78.4225 61.9867 79.4612 61.9867V61.9867ZM102.457 60.1034C102.457 59.0647 101.612 58.2199 100.574 58.2199H99.9982V61.9869H100.574C101.612 61.9867 102.457 61.1418 102.457 60.1034V60.1034ZM98.0626 50.12C99.1197 51.5798 99.7589 53.2608 99.9419 55.0323H100.574C100.866 55.0323 101.152 55.0587 101.431 55.1063L101.967 51.2872C102.443 47.8916 100.184 44.697 96.8236 44.0142C96.7207 43.9934 96.62 43.9624 96.5231 43.9216L93.2074 42.5275C89.7561 41.0764 85.8862 41.5219 82.8551 43.7182C79.8239 45.915 78.1958 49.4538 78.4997 53.18L78.6616 55.0956C78.9221 55.0542 79.189 55.0321 79.4612 55.0321H80.0506C80.1879 53.6809 81.3321 52.6227 82.7191 52.6227H86.6544C89.4591 52.6227 92.2344 51.6892 94.469 49.9946L94.9199 49.6527C95.3933 49.2936 96.0023 49.1376 96.5894 49.2252C97.1771 49.3127 97.7141 49.6389 98.0626 50.12V50.12ZM95.481 51.9894C95.4815 51.9901 95.4817 51.9905 95.4819 51.9909C95.4817 51.9905 95.4813 51.9901 95.481 51.9894ZM96.8106 56.0931C96.8106 54.9405 96.5329 53.8266 96.001 52.8237C93.2869 54.7529 89.9871 55.8104 86.6542 55.8104H83.224V63.5311C83.224 67.2771 86.2715 70.3246 90.0173 70.3246C93.7631 70.3246 96.8106 67.2771 96.8106 63.5311V56.0931ZM90.2468 76.6813C91.4996 76.6813 92.5187 75.662 92.5187 74.4093V73.1943C91.7191 73.4015 90.8808 73.512 90.0173 73.512C89.3173 73.512 88.6344 73.4389 87.9746 73.301V74.4093C87.9746 75.662 88.9939 76.6813 90.2468 76.6813ZM40.2694 46.5495V41.9053C38.9979 41.9163 37.9667 42.9535 37.9667 44.2276C37.9667 45.5017 38.9979 46.5384 40.2694 46.5495ZM38.0011 32.252L38.9343 38.886C39.3619 38.7774 39.8092 38.719 40.2696 38.7173V38.5883C40.2696 36.0189 41.0643 33.5474 42.5035 31.4822C41.8761 29.0653 41.8982 26.5771 42.5477 24.212C39.4694 25.5259 37.5145 28.7933 38.0011 32.252V32.252ZM65.628 47.4241V38.2747C65.628 34.7828 62.7873 31.9422 59.2956 31.9422H50.643C50.2786 31.9422 49.9252 31.8173 49.6417 31.5884L48.1048 30.3469L46.6771 31.574C44.6306 33.333 43.457 35.8899 43.457 38.5883V47.4239C43.457 53.5366 48.4299 58.5095 54.5426 58.5095C60.6553 58.5095 65.628 53.5366 65.628 47.4241V47.4241ZM54.5424 61.6971C52.7182 61.6971 50.9749 61.3494 49.3697 60.723V62.7651L54.5424 65.3013L59.7151 62.7651V60.723C58.1101 61.3492 56.3666 61.6971 54.5424 61.6971ZM60.9307 71.9818L64.3637 67.3918L61.857 65.2646L56.1363 68.0695V70.5227L60.9307 71.9818ZM48.1543 71.9818L52.9487 70.5229V68.0697L47.2281 65.2648L44.7213 67.392L48.1543 71.9818ZM32.4574 65.2744C33.9002 63.4036 34.2005 60.9931 33.2604 58.8257L30.8644 53.3005C30.5716 52.6256 30.3699 51.914 30.2651 51.1852C29.4286 45.3725 24.3694 40.989 18.4968 40.989C12.6242 40.989 7.56499 45.3725 6.72863 51.1852C6.62387 51.9138 6.42222 52.6254 6.12941 53.3005L3.73337 58.8257C2.79352 60.9929 3.09356 63.4036 4.53637 65.2744C5.60477 66.6594 7.11877 67.5121 8.78044 67.7167C8.43727 66.8251 8.21352 65.8746 8.13128 64.884C8.05861 64.0069 8.71096 63.2368 9.58791 63.1641C10.4642 63.0929 11.2349 63.7438 11.3078 64.6207C11.6149 68.3281 14.7727 71.2322 18.4968 71.2322C22.4761 71.2322 25.7132 67.9951 25.7132 64.0158V56.3706C25.7132 54.6753 25.2142 53.0081 24.2952 51.5929C22.233 53.1671 19.691 54.0674 17.0943 54.136L11.2804 54.2894V57.9604C11.2804 58.8408 10.5669 59.5541 9.68672 59.5541C8.80658 59.5541 8.09304 58.8408 8.09304 57.9604V53.8579C8.09304 52.359 9.26683 51.1539 10.7651 51.1146L17.0104 50.9502C19.0327 50.8966 21.0103 50.1642 22.5792 48.8881L22.991 48.553C23.4767 48.158 24.0868 47.977 24.7096 48.0439C25.332 48.1104 25.8902 48.4164 26.281 48.9049C27.9705 51.0158 28.9012 53.6673 28.9012 56.3712V64.0164C28.9012 65.3183 28.6587 66.5642 28.2199 67.7137C29.8786 67.5076 31.3905 66.6577 32.4574 65.2744V65.2744ZM18.644 77.5242C19.7297 77.5242 20.613 76.6411 20.613 75.5553V74.2028C19.9294 74.3445 19.2218 74.4197 18.497 74.4197C17.877 74.4197 17.2686 74.3615 16.6753 74.2544V75.5555C16.6751 76.6411 17.5584 77.5242 18.644 77.5242V77.5242Z" fill="#979797"/>
<path d="M105.584 80.7417C106.376 80.3573 107.329 80.6892 107.713 81.4814C108.567 83.2453 109 85.1318 109 87.0886V92.1688C109 93.0492 108.286 93.7625 107.406 93.7625C106.526 93.7625 105.813 93.0492 105.813 92.1688V87.0886C105.813 85.6169 105.487 84.1979 104.844 82.8705C104.461 82.0783 104.792 81.125 105.584 80.7417V80.7417Z" fill="#979797"/>
</g>
<defs>
<clipPath id="clip0">
<rect width="109" height="109" fill="white" transform="matrix(-1 0 0 1 109 0)"/>
</clipPath>
</defs>
</svg>
