<svg width="111" height="111" viewBox="0 0 111 111" fill="none" xmlns="http://www.w3.org/2000/svg">
<path d="M105.469 55.4625L100.433 54.8318C98.9023 51.086 96.7027 47.6212 93.9689 44.6233L97.6715 28.9372C97.8237 28.2924 97.6729 27.6136 97.2618 27.0942C96.8508 26.5747 96.2249 26.2716 95.5625 26.2712L95.0888 26.271C95.086 26.271 95.0841 26.271 95.0813 26.271C88.9348 26.271 83.3955 30.1382 81.2167 35.8105C79.6757 35.198 78.0915 34.6936 76.476 34.3113C75.3107 34.0358 74.1428 34.7566 73.8672 35.9221C73.5917 37.0874 74.3128 38.2553 75.4781 38.5309C80.9966 39.8362 85.9194 42.6268 89.7997 46.4994C89.9414 46.7071 90.1181 46.891 90.3258 47.0397C93.1544 50.0085 95.3902 53.5705 96.8406 57.5622C97.1183 58.327 97.8014 58.872 98.6088 58.9731L104.931 59.7646C105.919 59.8884 106.664 60.7328 106.664 61.7288V72.659C106.664 73.655 105.919 74.4994 104.931 74.6232L99.0725 75.3566C98.2298 75.462 97.5263 76.0497 97.2726 76.8603C95.5346 82.4136 92.2323 87.3242 87.7223 91.061C87.2252 91.4729 86.9375 92.0849 86.9375 92.7303V104.714C86.9375 105.789 86.0625 106.664 84.9872 106.664H72.4115C71.3359 106.664 70.4609 105.789 70.4609 104.714V100.146C70.4609 98.9491 69.4901 97.9785 68.293 97.9785H50.079C48.8818 97.9785 47.911 98.9491 47.911 100.146V104.714C47.911 105.789 47.036 106.664 45.9605 106.664H33.3846C32.3092 106.664 31.4342 105.789 31.4342 104.714V96.2522C31.4342 95.4572 30.9991 94.7261 30.3006 94.3469C20.5703 89.064 14.5254 78.9112 14.5254 67.8507C14.5254 51.238 28.0407 37.7226 44.6534 37.7226H47.3701C48.5673 37.7226 49.5381 36.752 49.5381 35.5547C49.5381 34.3573 48.5673 33.3867 47.3701 33.3867H44.6534C28.5602 33.3867 15.0093 44.4752 11.2359 59.4132H9.64746C6.71853 59.4132 4.33594 57.0304 4.33594 54.1016C4.33594 51.1729 6.71853 48.7901 9.64746 48.7901C10.8446 48.7901 11.8154 47.8195 11.8154 46.6222C11.8154 45.4248 10.8446 44.4542 9.64746 44.4542C4.32792 44.4542 0 48.7819 0 54.1016C0 59.4214 4.32792 63.7491 9.64746 63.7491H10.4347C10.2742 65.0945 10.1895 66.4627 10.1895 67.8507C10.1895 80.067 16.6357 91.315 27.0981 97.5143V104.714C27.0981 108.18 29.9182 111 33.3843 111H45.9601C49.4264 111 52.2465 108.18 52.2465 104.714V102.315H66.1246V104.714C66.1246 108.18 68.9447 111 72.411 111H84.9868C88.4529 111 91.273 108.18 91.273 104.714V93.7299C95.6748 89.8586 98.9966 84.9753 100.963 79.4899L105.469 78.9255C108.622 78.531 111 75.8368 111 72.659V61.7288C111 58.5512 108.622 55.857 105.469 55.4625ZM90.328 41.1734C88.7107 39.8505 86.9785 38.6785 85.1565 37.6721C86.3543 34.2305 89.2759 31.6697 92.76 30.8701L90.328 41.1734Z" fill="#979797"/>
<path d="M86.3004 55.0512C85.8973 54.648 85.338 54.416 84.7678 54.416C84.1976 54.416 83.6383 54.648 83.2351 55.0512C82.8318 55.4545 82.5999 56.0138 82.5999 56.584C82.5999 57.1542 82.8316 57.7135 83.2351 58.1167C83.6385 58.52 84.1976 58.752 84.7678 58.752C85.338 58.752 85.8973 58.52 86.3004 58.1167C86.7036 57.7135 86.9358 57.1542 86.9358 56.584C86.9358 56.0138 86.7036 55.4545 86.3004 55.0512Z" fill="#979797"/>
<path d="M63.574 12.6465C62.3768 12.6465 61.406 13.6171 61.406 14.8145V23.4137C61.406 24.6111 62.3768 25.5817 63.574 25.5817C64.7711 25.5817 65.7419 24.6111 65.7419 23.4137V14.8145C65.7419 13.6173 64.7713 12.6465 63.574 12.6465Z" fill="#979797"/>
<path d="M65.1063 5.41549C64.7032 5.01225 64.1439 4.78027 63.5737 4.78027C63.0033 4.78027 62.4442 5.01225 62.041 5.41549C61.6377 5.81873 61.4058 6.37807 61.4058 6.94824C61.4058 7.52059 61.6375 8.07775 62.041 8.481C62.4442 8.88424 63.0033 9.11621 63.5737 9.11621C64.1439 9.11621 64.7032 8.88424 65.1063 8.481C65.5095 8.07775 65.7417 7.51842 65.7417 6.94824C65.7417 6.37807 65.5095 5.8209 65.1063 5.41549Z" fill="#979797"/>
<path d="M45.9609 0C44.7638 0 43.793 0.9706 43.793 2.16797V5.85352C43.793 7.05088 44.7638 8.02148 45.9609 8.02148C47.1581 8.02148 48.1289 7.05088 48.1289 5.85352V2.16797C48.1289 0.9706 47.1583 0 45.9609 0Z" fill="#979797"/>
<path d="M24.7014 67.8506C24.7014 66.6532 23.7306 65.6826 22.5334 65.6826C21.3363 65.6826 20.3655 66.6532 20.3655 67.8506L20.3657 67.9657C20.3731 69.1583 21.3424 70.1202 22.5334 70.1202C22.5378 70.1202 22.5423 70.1202 22.5471 70.1202C23.7443 70.1126 24.709 69.136 24.7016 67.9386L24.7014 67.8506Z" fill="#979797"/>
<path d="M34.298 84.9088C30.5294 82.6153 27.5877 79.0917 26.015 74.9871C25.5864 73.8686 24.3327 73.3095 23.2149 73.7383C22.0968 74.1667 21.5377 75.4202 21.9661 76.5385C23.8804 81.535 27.4595 85.823 32.0441 88.6128C32.3962 88.8269 32.7849 88.9291 33.1689 88.9291C33.9006 88.9291 34.6149 88.5586 35.0231 87.8878C35.6456 86.8649 35.3206 85.5312 34.298 84.9088Z" fill="#979797"/>
<path d="M45.9609 10.4175C40.9401 10.4175 36.8555 14.5022 36.8555 19.523C36.8555 24.5437 40.9401 28.6284 45.9609 28.6284C50.9817 28.6284 55.0664 24.5437 55.0664 19.523C55.0664 14.5022 50.9817 10.4175 45.9609 10.4175ZM45.9609 24.2925C43.331 24.2925 41.1914 22.1529 41.1914 19.523C41.1914 16.893 43.331 14.7534 45.9609 14.7534C48.5909 14.7534 50.7305 16.893 50.7305 19.523C50.7305 22.1529 48.5909 24.2925 45.9609 24.2925Z" fill="#979797"/>
<path d="M73.2773 45.9609H71.3262C72.1834 44.5728 72.6794 42.9392 72.6794 41.1914C72.6794 36.1706 68.5947 32.0859 63.5739 32.0859C58.5532 32.0859 54.4685 36.1706 54.4685 41.1914C54.4683 42.9392 54.9643 44.5728 55.8215 45.9609H45.0938C43.8966 45.9609 42.9258 46.9315 42.9258 48.1289C42.9258 49.3263 43.8966 50.2969 45.0938 50.2969H73.2773C74.4745 50.2969 75.4453 49.3263 75.4453 48.1289C75.4453 46.9315 74.4747 45.9609 73.2773 45.9609ZM63.5739 45.9609C60.944 45.9609 58.8044 43.8214 58.8044 41.1914C58.8044 38.5614 60.944 36.4219 63.5739 36.4219C66.2039 36.4219 68.3435 38.5614 68.3435 41.1914C68.3435 43.8214 66.2037 45.9609 63.5739 45.9609Z" fill="#979797"/>
</svg>
