<svg width="102" height="109" viewBox="0 0 102 109" fill="none" xmlns="http://www.w3.org/2000/svg">
<path d="M19.1252 61.6254H61.6251C62.7986 61.6254 63.7501 60.674 63.7501 59.5004V51.0004C63.7501 49.8268 62.7986 48.8754 61.6251 48.8754H59.4999V29.7502C59.4999 19.2047 50.9205 10.6252 40.375 10.6252C29.8295 10.6252 21.25 19.2047 21.25 29.7502V48.8754H19.125C17.9514 48.8754 17 49.8268 17 51.0004V59.5004C17.0002 60.674 17.9516 61.6254 19.1252 61.6254ZM25.5002 29.7502C25.5002 21.5482 32.1731 14.8752 40.3752 14.8752C48.5772 14.8752 55.2502 21.5482 55.2502 29.7502V48.8754H25.5002V29.7502ZM21.2502 53.1254H59.5002V57.3754H21.2502V53.1254V53.1254Z" fill="#979797"/>
<path d="M46.75 27.6254H42.5V23.3754C42.5 22.2017 41.5486 21.2504 40.375 21.2504C39.2014 21.2504 38.25 22.2017 38.25 23.3754V27.6254H34C32.8264 27.6254 31.875 28.5767 31.875 29.7504C31.875 30.924 32.8264 31.8754 34 31.8754H38.25V40.3753C38.25 41.549 39.2014 42.5003 40.375 42.5003C41.5486 42.5003 42.5 41.549 42.5 40.3753V31.8754H46.75C47.9236 31.8754 48.875 30.924 48.875 29.7504C48.875 28.5767 47.9236 27.6254 46.75 27.6254Z" fill="#979797"/>
<path d="M54.6427 70.5497C54.6427 69.376 53.6912 68.4247 52.5177 68.4247H28.2324C27.0588 68.4247 26.1074 69.376 26.1074 70.5497C26.1074 71.7233 27.0588 72.6747 28.2324 72.6747H52.5177C53.6914 72.6747 54.6427 71.7233 54.6427 70.5497Z" fill="#979797"/>
<path d="M19.1255 76.9246C17.9518 76.9246 17.0005 77.8759 17.0005 79.0496C17.0005 80.2232 17.9518 81.1746 19.1255 81.1746H31.8746C33.0483 81.1746 33.9996 80.2232 33.9996 79.0496C33.9996 77.8759 33.0483 76.9246 31.8746 76.9246H19.1255Z" fill="#979797"/>
<path d="M100.717 46.1133L97.9123 43.3085C97.0844 42.4806 95.9817 42.0248 94.8068 42.0248C93.6321 42.0248 92.5292 42.4809 91.7016 43.3085L80.75 54.2601V2.12499C80.75 0.951358 79.7984 0 78.625 0H27.6253C26.4516 0 25.5003 0.951358 25.5003 2.12499C25.5003 3.29862 26.4516 4.24998 27.6253 4.24998H76.4998V58.5101L58.0851 76.9246H48.8741C47.7005 76.9246 46.7491 77.8759 46.7491 79.0496C46.7491 80.2232 47.7005 81.1746 48.8741 81.1746H53.8351L50.4804 84.5293C50.2768 84.7329 50.117 84.9755 50.0101 85.2427L49.9372 85.4245H28.2322C27.0585 85.4245 26.1072 86.3759 26.1072 87.5495C26.1072 88.7232 27.0585 89.6745 28.2322 89.6745H48.237L46.537 93.9245H32.7739C31.6003 93.9245 30.6489 94.8759 30.6489 96.0495C30.6489 97.2231 31.6003 98.1745 32.7739 98.1745H47.974C47.9746 98.1745 47.9754 98.1745 47.9761 98.1745C48.0454 98.1745 48.1148 98.1707 48.1841 98.1639C48.2141 98.1609 48.2434 98.1554 48.2732 98.1511C48.3108 98.1458 48.3484 98.1413 48.3858 98.1339C48.4262 98.126 48.4655 98.1152 48.5052 98.1052C48.5311 98.0984 48.5573 98.0929 48.5832 98.0852C48.6272 98.0721 48.6699 98.0563 48.7126 98.0406C48.73 98.0342 48.7479 98.0293 48.7651 98.0225L48.797 98.0098C48.7997 98.0085 48.8027 98.0077 48.8055 98.0064L58.7825 94.0155C59.0498 93.9086 59.2923 93.7486 59.4959 93.5452L76.4998 76.5415V104.55H4.25019V4.24998H10.6254C11.799 4.24998 12.7504 3.29862 12.7504 2.12499C12.7504 0.951358 11.799 0 10.6254 0H2.12499C0.951358 0 0 0.951358 0 2.12499V106.675C0 107.848 0.951358 108.8 2.12499 108.8H78.6246C79.798 108.8 80.7496 107.848 80.7496 106.675V72.2913L100.717 52.324C102.429 50.6117 102.429 47.8256 100.717 46.1133ZM56.799 90.2315L51.7904 92.2351L53.3328 88.3798C53.334 88.3766 53.3353 88.3734 53.3366 88.3702L53.7941 87.2265L86.0011 55.0191L89.0062 58.0243L56.799 90.2315ZM97.7117 49.3189L92.0114 55.0191L89.0062 52.014L94.7065 46.3137C94.7577 46.2623 94.8548 46.2619 94.9065 46.3137L97.7114 49.1187C97.7631 49.1701 97.7631 49.2674 97.7117 49.3189Z" fill="#979797"/>
<path d="M19.1266 4.24999C20.3002 4.24999 21.2516 3.29863 21.2516 2.125C21.2516 0.951361 20.3002 0 19.1266 0H19.1251C17.9515 0 17.001 0.951361 17.001 2.125C17.001 3.29863 17.953 4.24999 19.1266 4.24999Z" fill="#979797"/>
<path d="M40.3732 76.9246C39.1995 76.9246 38.249 77.8759 38.249 79.0496C38.249 80.2232 39.201 81.1746 40.3747 81.1746C41.5483 81.1746 42.4997 80.2232 42.4997 79.0496C42.4997 77.8759 41.5483 76.9246 40.3747 76.9246H40.3732Z" fill="#979797"/>
</svg>
