<svg width="111" height="111" viewBox="0 0 111 111" fill="none" xmlns="http://www.w3.org/2000/svg">
<path d="M28.3363 34.9302C27.455 34.9302 26.6463 34.3782 26.3218 33.5598C25.9892 32.7206 26.2262 31.7284 26.9067 31.1328C27.5966 30.529 28.6259 30.4267 29.4196 30.8863C30.2139 31.3461 30.6443 32.2844 30.4628 33.1872C30.2619 34.1883 29.3572 34.9302 28.3363 34.9302Z" fill="#979797"/>
<path d="M67.9579 79.4472C67.0521 79.4472 66.2248 78.8645 65.9174 78.0131C65.6189 77.1862 65.8627 76.2276 66.5277 75.6496C67.2331 75.0365 68.2672 74.9456 69.0705 75.4213C69.8208 75.8657 70.2375 76.7583 70.0985 77.6187C69.9309 78.6566 69.0111 79.4472 67.9579 79.4472Z" fill="#979797"/>
<path d="M110.45 16.1163C110.155 15.3217 109.424 14.7717 108.579 14.7086L96.7599 13.8245L95.8758 2.00633C95.8127 1.16126 95.2629 0.430445 94.4683 0.135603C93.6734 -0.159456 92.7802 0.0358765 92.1809 0.6351L82.7338 10.082C81.1688 11.6466 80.2628 13.7261 80.1819 15.9376C80.1804 15.9769 80.18 16.0161 80.1808 16.0554L80.3096 23.2937C71.8362 16.4415 61.0571 12.3328 49.336 12.3328C22.132 12.3328 0 34.4637 0 61.6664C0 88.869 22.132 111 49.336 111C76.54 111 98.6718 88.869 98.6718 61.6664C98.6718 49.7578 94.4302 38.8213 87.3787 30.288L94.533 30.4035C94.5447 30.4038 94.5561 30.4038 94.5679 30.4038C94.5943 30.4038 94.6208 30.4033 94.6472 30.4022C96.8583 30.3214 98.938 29.4152 100.503 27.8503L109.95 18.4035C110.549 17.8042 110.745 16.9106 110.45 16.1163ZM85.7998 13.1479L91.9047 7.04315L92.5014 15.0182L84.6388 22.8931L84.5172 16.0428C84.5701 14.9493 85.0243 13.9232 85.7998 13.1479ZM49.336 106.664C24.5229 106.664 4.33592 86.4778 4.33592 61.6659C4.33592 36.8541 24.5226 16.6682 49.336 16.6682C60.8626 16.6682 71.3904 21.0247 79.3605 28.1771L74.3393 33.198C67.6609 27.3257 58.9071 23.7601 49.336 23.7601C44.9275 23.7601 40.605 24.5141 36.4883 26.0011C35.3622 26.4078 34.779 27.6505 35.1857 28.7767C35.5927 29.9028 36.8345 30.4866 37.9614 30.0792C41.6042 28.7633 45.4311 28.096 49.336 28.096C57.7115 28.096 65.3804 31.179 71.2677 36.2694L66.2381 41.2988C61.6491 37.4843 55.7558 35.1876 49.336 35.1876C34.735 35.1876 22.8563 47.0658 22.8563 61.6659C22.8563 76.2661 34.735 88.1443 49.336 88.1443C53.5089 88.1443 57.6694 87.1436 61.3675 85.2503C62.4333 84.7046 62.8547 83.3984 62.3093 82.3326C61.7636 81.2667 60.457 80.8456 59.3914 81.3909C56.2581 82.9952 52.8748 83.8086 49.336 83.8086C37.1261 83.8086 27.1923 73.8757 27.1923 61.6662C27.1923 49.4566 37.1259 39.5237 49.336 39.5237C54.5599 39.5237 59.3663 41.3431 63.1572 44.3799L58.0998 49.4371C55.6298 47.6622 52.6031 46.6153 49.3362 46.6153C41.0368 46.6153 34.2847 53.367 34.2847 61.6659C34.2847 69.9649 41.0368 76.7166 49.3362 76.7166C57.6354 76.7166 64.3875 69.9649 64.3875 61.6659C64.3875 58.1946 63.2055 54.9943 61.2236 52.4452L66.2623 47.4066C69.5156 51.2619 71.4797 56.2385 71.4797 61.6657C71.4797 64.0468 71.1025 66.3901 70.358 68.6303C69.9806 69.7665 70.5959 70.9938 71.7321 71.3712C72.8675 71.7485 74.0954 71.1338 74.473 69.9974C75.3639 67.3154 75.8157 64.5123 75.8157 61.6657C75.8157 55.0426 73.3713 48.9799 69.3374 44.3318L74.3597 39.3097C79.6733 45.2504 82.9081 53.0873 82.9081 61.6657C82.9081 80.1762 67.8478 95.2357 49.3364 95.2357C30.8251 95.2357 15.7641 80.1764 15.7641 61.6659C15.7641 54.5141 17.9923 47.683 22.2079 41.9113C22.9142 40.9444 22.7029 39.5881 21.7359 38.882C20.769 38.1759 19.4128 38.3868 18.7064 39.354C13.9452 45.8732 11.4282 53.5886 11.4282 61.6659C11.4282 82.5674 28.4336 99.5718 49.3358 99.5718C70.2382 99.5718 87.2434 82.5672 87.2434 61.6659C87.2434 51.8919 83.5247 42.9706 77.428 36.2412L82.4453 31.2241C89.8237 39.2421 94.3354 49.9369 94.3354 61.6662C94.3359 86.4778 74.1489 106.664 49.336 106.664ZM60.0511 61.6659C60.0511 67.5741 55.2443 72.3806 49.3358 72.3806C43.4272 72.3806 38.6202 67.5741 38.6202 61.6659C38.6202 55.7578 43.4272 50.9512 49.3358 50.9512C51.404 50.9512 53.337 51.5409 54.9764 52.5599L48.0612 59.4746C47.2147 60.3212 47.2147 61.6939 48.0612 62.5405C48.4847 62.9639 49.0394 63.1755 49.5942 63.1755C50.149 63.1755 50.7038 62.9637 51.1272 62.5405L58.1245 55.5436C59.3381 57.2804 60.0511 59.3913 60.0511 61.6659ZM97.4371 24.7842C96.6615 25.5599 95.6343 26.0141 94.5401 26.0668L87.7134 25.9564L91.8783 21.7918C91.9247 21.7454 91.968 21.697 92.0094 21.6478L95.5684 18.0833L103.542 18.6799L97.4371 24.7842Z" fill="#979797"/>
</svg>
