<svg width="107" height="107" viewBox="0 0 107 107" fill="none" xmlns="http://www.w3.org/2000/svg">
<path d="M91.4678 56.9517H94.9194V60.4033H91.4678V56.9517Z" fill="#979797"/>
<path d="M91.4678 63.8549H94.9194V67.3065H91.4678V63.8549Z" fill="#979797"/>
<path d="M101.823 0H84.5646C81.717 0 79.3872 2.32984 79.3872 5.17742V30.9351C79.3872 32.6393 80.207 34.2141 81.6092 35.1849L88.0162 40.4917V48.3226H91.4679V53.5H94.9195V48.3226H98.3711V40.5133L104.778 35.2065C106.18 34.2357 107 32.6609 107 30.9567V5.17742C107 2.32984 104.67 0 101.823 0ZM82.8388 5.17742C82.8388 4.22823 83.6154 3.45161 84.5646 3.45161H101.823C102.772 3.45161 103.549 4.22823 103.549 5.17742V30.9351C103.549 30.9782 103.527 31.0214 103.527 31.0645H94.9195V34.5161H100.205L96.0412 37.9677H90.3892L86.2257 34.5161H91.4679V31.0645H82.8604C82.8604 31.0214 82.8388 30.9782 82.8388 30.9351V5.17742ZM91.4679 44.871V41.4194H94.9195V44.871H91.4679Z" fill="#979797"/>
<path d="M91.4677 24.1612H94.9193V20.7096H98.371V17.258H94.9193V13.8064H91.4677V17.258H88.0161V20.7096H91.4677V24.1612Z" fill="#979797"/>
<path d="M37.9465 49.6816C39.5429 49.6816 41.0745 49.3796 42.4767 48.8187L45.5616 47.0714C48.0209 45.173 49.7683 42.3901 50.286 39.1758H50.437C53.112 39.1758 55.2693 36.997 55.2693 34.3435C55.2693 33.2002 54.881 32.1647 54.2122 31.3234L55.2046 24.226C55.9164 19.1133 52.357 14.3242 47.2227 13.5476L47.0285 13.526C45.389 10.851 42.865 8.93104 39.8233 8.06814L39.4566 7.96027C35.4225 6.81693 31.108 7.50725 27.6348 9.83709C26.9876 10.2685 26.815 11.1314 27.2465 11.7786C27.6779 12.4258 28.5408 12.5984 29.188 12.1669C31.9925 10.2901 35.4656 9.7508 38.7015 10.6568L39.0683 10.7647C41.6138 11.4766 43.7064 13.1593 44.9576 15.4891C45.8205 17.0855 46.1872 18.8544 46.0794 20.6234L45.1302 19.8036C44.2673 19.0486 42.9945 19.0486 42.11 19.7605L40.8588 20.7744H33.7614C29.1449 20.7744 25.4128 24.528 25.4128 29.123V29.5113C25.0461 29.5113 24.6794 29.5544 24.3342 29.6407C22.7594 25.1968 23.1908 20.1704 25.5854 16.0716C25.9737 15.4028 25.7364 14.5399 25.0677 14.1516C24.3989 13.7633 23.536 14.0006 23.1477 14.6693C20.2786 19.631 19.804 25.7361 21.8749 31.0645C21.0767 31.9274 20.5806 33.0708 20.5806 34.3435C20.5806 37.0185 22.7594 39.1758 25.4128 39.1758H25.5638C26.1031 42.498 27.9584 45.3887 30.5902 47.2871V47.3518L33.6535 48.905C35.0126 49.4012 36.458 49.6816 37.9465 49.6816ZM25.4344 36.3929C24.3126 36.3929 23.4066 35.4653 23.4066 34.3651C23.4066 33.2433 24.3126 32.3373 25.4344 32.3373V36.3929ZM50.4802 36.3929V32.3157C51.6019 32.3157 52.508 33.2433 52.508 34.3435C52.508 35.4437 51.5804 36.3714 50.4802 36.3929ZM52.4648 23.8377L51.6451 29.6623C51.2783 29.576 50.8685 29.5113 50.4802 29.5113V29.4034C50.4802 27.1383 49.7898 24.981 48.5171 23.1689C49.0779 21.0548 49.0564 18.8544 48.4739 16.7835C51.1705 17.9484 52.8963 20.8175 52.4648 23.8377ZM28.2173 37.148V29.123C28.2173 26.0597 30.7197 23.5572 33.783 23.5572H41.3765C41.7001 23.5572 42.0021 23.4494 42.261 23.2552L43.6201 22.155L44.8713 23.2337C46.6618 24.7869 47.6973 27.0304 47.6973 29.3818V37.1264C47.6973 42.498 43.3396 46.8556 37.9681 46.8556C32.5965 46.8772 28.2173 42.5195 28.2173 37.148Z" fill="#979797"/>
<path d="M91.4677 70.7581V84.5645C91.4677 85.5137 90.6911 86.2903 89.7419 86.2903H75.9355V8.62903C75.9355 6.73065 74.3823 5.17742 72.4839 5.17742H69.0107C68.9028 2.30827 66.5514 0 63.6391 0C62.2153 0 60.8347 0.58246 59.8208 1.5748L58.3107 3.08488C53.8667 1.05706 48.9482 0 44.0512 0H31.8627C26.9657 0 22.0688 1.05706 17.6032 3.08488L16.0931 1.5748C15.1008 0.58246 13.6986 0 12.2964 0C9.38407 0 7.03266 2.30827 6.9248 5.17742H3.45161C1.55323 5.17742 0 6.73065 0 8.62903V107H75.9355V89.7419H89.7419C92.5895 89.7419 94.9194 87.4121 94.9194 84.5645V70.7581H91.4677ZM10.3548 5.39315C10.3548 4.33609 11.2177 3.45161 12.2964 3.45161C12.8141 3.45161 13.3103 3.66734 13.6554 4.0125L16.9129 7.26996L18.0347 6.70907C22.306 4.57339 27.0952 3.43004 31.8843 3.43004H44.0728C48.8619 3.43004 53.651 4.55181 57.9224 6.70907L59.0442 7.26996L62.3016 4.0125C62.6683 3.64577 63.1645 3.45161 63.6607 3.45161C64.7177 3.45161 65.6022 4.31452 65.6022 5.39315V42.9294C65.6022 43.9865 64.7393 44.871 63.6607 44.871C63.1429 44.871 62.6468 44.6552 62.3016 44.3101L59.0442 41.0526L57.2105 41.9802C54.9454 43.1236 52.5077 43.8786 50.0268 44.3532L41.5488 46.079C40.427 46.4242 39.2405 46.6183 38.0109 46.6183C36.9107 46.6183 35.8536 46.4673 34.8613 46.2085L25.995 44.3748C23.4925 43.9002 21.0764 43.1236 18.8113 42.0018L16.9776 41.0742L13.7202 44.3317C13.3534 44.6984 12.8573 44.8925 12.3395 44.8925C11.2825 44.8925 10.398 44.0296 10.398 42.951V5.39315H10.3548ZM18.9839 60.4032V74.2097H30.2016C31.6254 74.2097 32.7903 75.3746 32.7903 76.7984C32.7903 78.2222 31.6254 79.3871 30.2016 79.3871H15.5323C14.5831 79.3871 13.8065 78.6105 13.8065 77.6613V60.9857C13.8065 58.4833 15.597 56.3476 18.0562 55.8946L30.2879 53.6726C31.3881 54.9885 33.7395 56.9516 37.9677 56.9516C42.196 56.9516 44.5474 54.9669 45.6476 53.6726L57.8792 55.8946C60.3385 56.3476 62.129 58.4833 62.129 60.9857V77.6613C62.129 78.6105 61.3524 79.3871 60.4032 79.3871H51.7742V74.2097H56.9516V60.4032H18.9839ZM32.7903 51.2565V49.1423C34.4083 49.7248 36.1556 50.0484 37.9677 50.0484C39.7798 50.0484 41.5272 49.7248 43.1452 49.1423V51.2565C42.6706 51.9036 41.2036 53.5 37.9677 53.5C34.7319 53.5 33.2649 51.9252 32.7903 51.2565ZM3.45161 8.62903H6.90323V42.9294C6.90323 45.9065 9.31935 48.3226 12.2964 48.3226C13.7202 48.3226 15.1008 47.7401 16.1147 46.7478L17.6248 45.2377C21.2921 47.0067 25.3046 48.0421 29.3603 48.2794V50.3504L17.4522 52.5077C13.5476 53.2196 10.6784 56.4986 10.4196 60.4248H3.45161V8.62903ZM72.4839 103.548H3.45161V63.8548H10.3548V77.6613C10.3548 80.5089 12.6847 82.8387 15.5323 82.8387H30.2016C33.5238 82.8387 36.2419 80.1206 36.2419 76.7984C36.2419 73.4762 33.5238 70.7581 30.2016 70.7581H22.4355V63.8548H53.5V70.7581H45.7339C42.4117 70.7581 39.6935 73.4762 39.6935 76.7984C39.6935 80.1206 42.4117 82.8387 45.7339 82.8387H48.3226V84.5645C48.3226 87.4121 50.6524 89.7419 53.5 89.7419H72.4839V103.548ZM48.3226 74.2097V79.3871H45.7339C44.3101 79.3871 43.1452 78.2222 43.1452 76.7984C43.1452 75.3746 44.3101 74.2097 45.7339 74.2097H48.3226ZM72.4839 86.2903H53.5C52.5508 86.2903 51.7742 85.5137 51.7742 84.5645V82.8387H60.4032C63.2508 82.8387 65.5806 80.5089 65.5806 77.6613V63.8548H72.4839V86.2903ZM72.4839 60.4032H65.5375C65.2786 56.4986 62.4095 53.198 58.5048 52.5077L46.5968 50.3504V48.2794C50.6524 48.0421 54.6649 47.0067 58.3323 45.2377L59.8423 46.7478C60.8347 47.7401 62.2369 48.3226 63.6607 48.3226C66.6377 48.3226 69.0538 45.9065 69.0538 42.9294V8.62903H72.5054V60.4032H72.4839Z" fill="#979797"/>
</svg>
