<svg width="111" height="111" viewBox="0 0 111 111" fill="none" xmlns="http://www.w3.org/2000/svg">
<g clip-path="url(#clip0)">
<path d="M85.6394 61.3734C86.2742 60.7382 86.2737 59.7086 85.6385 59.0738C85.0033 58.4393 83.9737 58.4395 83.3389 59.0747C82.8355 59.5785 82.1656 59.856 81.4524 59.856C80.7393 59.856 80.0692 59.5785 79.5658 59.0747C78.931 58.4395 77.9014 58.4391 77.2662 59.0738C76.631 59.7086 76.6306 60.7382 77.2654 61.3734C78.3832 62.4921 79.87 63.108 81.4524 63.108C83.0348 63.108 84.5218 62.4921 85.6394 61.3734Z" fill="#979797"/>
<path d="M77.1103 50.5514C75.4744 48.9733 72.8128 48.9735 71.1768 50.5514C70.5306 51.1747 70.5119 52.204 71.1354 52.8503C71.7587 53.4968 72.7881 53.515 73.4343 52.8917C73.8187 52.5212 74.4682 52.521 74.8528 52.8917C75.1683 53.1961 75.575 53.3474 75.9813 53.3474C76.4073 53.3474 76.8326 53.1809 77.1517 52.8503C77.7753 52.2043 77.7566 51.1749 77.1103 50.5514Z" fill="#979797"/>
<path d="M88.0523 52.8918C88.4384 52.5194 89.0907 52.5194 89.4768 52.8918C89.7923 53.1962 90.199 53.3475 90.6053 53.3475C91.0313 53.3475 91.4566 53.181 91.7757 52.8504C92.3992 52.2041 92.3806 51.1748 91.7343 50.5515C90.0969 48.9719 87.4322 48.9719 85.7947 50.5515C85.1485 51.1748 85.1298 52.2041 85.7533 52.8504C86.3766 53.4967 87.406 53.5151 88.0523 52.8918Z" fill="#979797"/>
<path d="M50.9348 84.1503C51.8328 84.1503 52.5608 83.4223 52.5608 82.5243V81.4897C52.5608 80.5918 51.8328 79.8638 50.9348 79.8638C50.0368 79.8638 49.3088 80.5918 49.3088 81.4897V82.5243C49.3088 83.4223 50.0368 84.1503 50.9348 84.1503Z" fill="#979797"/>
<path d="M60.146 84.1503C61.044 84.1503 61.772 83.4223 61.772 82.5243V81.4897C61.772 80.5918 61.044 79.8638 60.146 79.8638C59.248 79.8638 58.52 80.5918 58.52 81.4897V82.5243C58.5202 83.4223 59.248 84.1503 60.146 84.1503Z" fill="#979797"/>
<path d="M110.954 99.4013L109.009 84.356C108.705 81.9951 107.983 79.916 106.858 78.1775C106.37 77.423 105.364 77.2062 104.61 77.694C103.856 78.1818 103.639 79.1878 104.127 79.9422C104.998 81.2885 105.538 82.8668 105.783 84.7725L107.684 99.4839H96.623V92.5758C96.623 91.6779 95.895 90.9499 94.997 90.9499C94.0991 90.9499 93.3711 91.6779 93.3711 92.5758V99.4839H72.6941C70.9857 96.8108 67.9506 95.6878 65.2213 94.916C65.1996 94.9094 65.1779 94.9029 65.1584 94.8986C64.7313 94.7772 64.3108 94.6666 63.9075 94.5582C63.6452 94.4889 63.3872 94.4195 63.1357 94.3501C62.8409 94.2699 62.5959 93.871 62.4029 93.4504C66.366 90.7253 69.3077 86.0925 69.3077 82.0471V78.3811C69.3077 76.8852 69.1516 75.4651 68.8416 74.1318C69.3727 73.9844 70.7884 73.6072 70.964 73.5617L78.3804 78.5868C79.1587 79.1635 80.1994 79.8074 81.4524 79.803C82.6969 79.8182 83.7462 79.1635 84.5245 78.5868L91.943 73.5595C92.0883 73.6007 92.2379 73.6397 92.3853 73.6787C94.64 74.2771 96.9725 74.895 99.0494 75.8445C99.8667 76.2153 100.831 75.8554 101.204 75.0402C101.577 74.2229 101.217 73.2582 100.4 72.8853C98.0717 71.823 95.6047 71.1682 93.22 70.5352C92.8395 70.4333 92.4597 70.3284 92.0798 70.2247C91.2018 69.9852 90.6698 68.8797 90.304 67.9438C96.1337 64.1663 100.526 57.4515 100.526 51.6173V38.8787C100.526 32.3362 95.5763 26.4242 87.9171 23.8172C84.7074 22.7245 81.3076 22.3623 78.3455 22.7967C75.254 23.2501 72.716 24.5266 70.9588 26.5033C67.373 27.0661 62.1623 29.8433 62.3398 41.2568C62.3416 41.366 62.3431 51.6173 62.3431 51.6173C62.3431 57.4491 66.7521 64.1676 72.6026 67.9479C72.2364 68.8851 71.704 69.985 70.8255 70.225C70.7837 70.2364 70.7433 70.2507 70.7032 70.2651C70.339 70.3624 68.4041 70.8779 67.7906 71.0492C67.1098 69.5923 66.2058 68.2894 65.0871 67.1685C62.6178 64.6884 59.2923 63.2901 55.726 63.2315H55.674C52.1055 63.2901 48.7801 64.6884 46.3086 67.1685C45.01 68.4715 44.004 70.0238 43.2973 71.7755C41.9987 71.3354 38.8725 70.4812 38.8725 70.4812C37.9814 70.2384 37.4503 69.0872 37.086 68.1441C41.4242 64.8423 44.561 59.6633 44.561 55.1127V50.651C44.561 49.7968 43.8998 49.0879 43.0477 49.0272C40.6543 48.8603 39.7546 47.9389 38.8007 46.9655C37.7601 45.9032 36.3357 44.4485 33.4287 45.2007C32.6699 45.3959 32.0238 45.5671 31.4667 45.7167C29.8429 46.1503 29.0277 46.3671 28.3535 46.3671C27.6771 46.3671 26.8619 46.1503 25.2381 45.7167C24.6809 45.5671 24.037 45.3959 23.2783 45.2007C20.3645 44.4506 18.9401 45.9053 17.8997 46.9676C16.9458 47.941 16.0461 48.8603 13.657 49.0272C12.805 49.0879 12.146 49.7968 12.146 50.651V55.1127C12.146 59.6611 15.2808 64.8423 19.6187 68.1441C19.2567 69.0894 18.7255 70.2384 17.8323 70.4812L17.377 70.607C13.6525 71.6194 9.63328 72.7142 6.70218 75.5649C5.99976 75.3372 3.628 74.8234 3.39603 74.7671C3.50443 74.5329 3.69738 74.1817 4.03341 73.6852C7.65609 68.3371 9.13443 60.5693 9.13443 46.8725C9.13443 39.649 12.2411 34.8361 15.2544 34.3548C15.2999 34.3483 15.3454 34.3418 15.3888 34.3353C15.8289 34.2746 16.863 34.1315 17.4332 33.0367C19.4169 29.2189 25.0989 27.0858 31.2538 27.8468C37.4214 28.6099 44.7557 32.5535 46.8367 41.3313C47.2031 42.8945 47.4307 44.605 47.5716 46.8746C47.5716 50.532 47.6367 54.833 48.1006 59.0432C48.2004 59.9364 49.0025 60.5803 49.8957 60.4806C50.7889 60.383 51.4328 59.5787 51.3331 58.6877C50.8843 54.6141 50.8236 50.4041 50.8236 46.8248C50.8236 46.7922 50.8214 46.7576 50.8193 46.725C50.6675 44.2405 50.416 42.3479 50.0019 40.5856C47.5348 30.1817 38.9065 25.5164 31.6527 24.6189C24.2601 23.704 17.5459 26.3164 14.7646 31.1399C14.7538 31.1421 14.743 31.1443 14.7321 31.1464C9.60271 31.9659 5.88269 38.5802 5.88269 46.8725C5.88269 59.8605 4.56673 67.0992 1.34296 71.8598C0.445422 73.1844 -0.393582 74.7302 0.196106 76.1632C0.777122 77.5768 2.28169 77.8738 3.49142 78.1101L3.72339 78.1578C4.0204 78.2163 4.30007 78.277 4.56673 78.342C3.64101 79.9724 2.9646 81.9842 2.64158 84.4967L0.720754 99.4119C0.634036 100.088 0.595012 101.077 1.28443 101.86C2.05189 102.735 3.23343 102.735 3.68003 102.735H37.4932C37.3935 103.34 37.3393 103.995 37.3393 104.702V107.867C37.3393 109.296 38.5013 110.46 39.9322 110.46H71.4605C72.8913 110.46 74.0534 109.296 74.0534 107.867V104.702C74.0534 103.995 74.0014 103.34 73.8995 102.735H107.977C108.74 102.735 109.703 102.636 110.386 101.857C111.077 101.073 111.04 100.08 110.954 99.4013ZM82.673 75.9139C82.6535 75.9269 82.634 75.9399 82.6145 75.9551C81.9511 76.4472 81.6281 76.5513 81.4741 76.5513H81.4524C81.4438 76.5513 81.4373 76.5535 81.4308 76.5513C81.2768 76.5513 80.9538 76.4472 80.2904 75.9551C80.2709 75.9399 80.2536 75.9269 80.2319 75.9139L74.1317 71.7794C74.751 71.0616 75.174 70.2343 75.4793 69.5071C75.8227 69.6587 76.168 69.8033 76.5168 69.9327C78.3247 70.6033 79.8941 70.9157 81.4555 70.9157C83.0197 70.9157 84.5878 70.603 86.388 69.9327C86.7375 69.8031 87.0835 69.658 87.4276 69.5058C87.7324 70.2319 88.1552 71.0598 88.7743 71.7785L82.673 75.9139ZM71.9411 29.6575C72.3938 29.6174 72.809 29.39 73.0863 29.0299C74.8265 26.7698 77.7526 25.8668 80.8534 25.8668C82.8781 25.8668 84.9778 26.2518 86.8691 26.8957C91.6688 28.5293 97.2736 32.648 97.2736 38.8787V45.5656H95.7253C93.1315 45.5656 91.5118 44.0463 89.4611 42.1229C86.9877 39.8029 84.1841 37.1732 79.1743 37.1732H73.6452C69.2435 37.1732 68.519 40.7126 68.0394 43.0547C67.5295 45.5448 67.1751 46.5698 65.5951 46.7953C65.5951 46.7953 65.5935 41.3361 65.5914 41.206C65.5133 36.2008 66.5518 30.1342 71.9411 29.6575ZM65.5948 51.6175V50.0613C69.9999 49.6782 70.7327 46.1124 71.2251 43.707C71.7696 41.0471 72.0582 40.4254 73.6449 40.4254H79.1741C82.8974 40.4254 85.0049 42.4021 87.2362 44.4951C89.3963 46.5212 91.8448 48.8178 95.7251 48.8178H97.2734V51.6175C97.2734 57.375 91.6582 64.5089 85.2551 66.8848C83.8275 67.4164 82.6199 67.6639 81.4555 67.6639C80.2921 67.6639 79.0822 67.4161 77.6479 66.8839C71.227 64.5015 65.5948 57.3676 65.5948 51.6175ZM46.007 73.8567C47.5918 68.9162 51.7606 66.5596 55.6998 66.4837C59.1187 66.5487 62.713 68.333 64.6359 72.0313C65.1064 72.9375 65.4793 73.9565 65.7221 75.0946C65.8066 75.4827 65.876 75.886 65.9281 76.3022C65.4663 76.0724 65.1216 75.7754 64.7899 75.4459C64.6923 75.3505 64.5947 75.2529 64.495 75.151C63.7969 74.4399 62.9037 73.5272 61.3623 73.447C60.6857 73.406 60.0145 73.5461 59.3643 73.7193C58.7131 73.8927 58.0661 74.0824 57.4138 74.2524C56.7205 74.4332 56.0094 74.6389 55.2868 74.5425C54.2538 74.4046 53.237 74.0532 52.2319 73.7882C51.1525 73.5036 50.0696 73.2692 48.9813 73.651C48.1477 73.9435 47.5064 74.5336 46.8998 75.1532C46.4662 75.5954 46.0651 76.0052 45.4711 76.3022C45.5366 75.7773 45.6634 74.8789 46.007 73.8567ZM45.3436 79.7751C47.401 79.2851 48.472 78.1968 49.2243 77.4272C49.4675 77.1783 49.752 76.8004 50.1071 76.7061C50.4685 76.6101 50.9168 76.8039 51.2587 76.8941C52.2371 77.1521 53.211 77.4421 54.2015 77.6498C55.003 77.8181 55.8054 77.8712 56.6186 77.7534C57.5664 77.6162 58.4932 77.3303 59.417 77.0846C59.7071 77.0074 59.9974 76.9307 60.2877 76.8546C60.5413 76.7883 60.8073 76.6944 61.0714 76.6855C61.5388 76.6701 61.8759 77.1247 62.1707 77.4269C62.9252 78.1944 63.9962 79.2849 66.0557 79.7749V82.0469C66.0557 85.7476 62.2791 90.5191 58.1299 92.0562C57.3949 92.3293 56.7489 92.4898 56.118 92.5375C55.2053 92.6112 54.3251 92.4508 53.2606 92.054C53.1457 92.0107 53.033 91.9673 52.9181 91.9196C48.9117 90.2568 45.3434 85.6479 45.3434 82.0469V79.7751H45.3436ZM60.9571 96.8235L56.4976 99.4425C56.4781 99.4555 56.4564 99.4663 56.4369 99.4793C56.4347 99.4815 56.4326 99.4815 56.4304 99.4836C55.7128 99.9476 55.6825 99.9476 54.9518 99.4771C54.9323 99.4663 54.915 99.4555 54.8955 99.4425L52.1552 97.8338L50.436 96.8257C51.0994 96.3076 51.5438 95.6225 51.8538 94.9938C51.9449 95.0306 52.0359 95.0697 52.1292 95.1043C52.2506 95.1499 52.372 95.1932 52.4912 95.2344C53.6164 95.6182 54.6548 95.8111 55.6955 95.8111H55.6976C56.8466 95.8111 57.9957 95.5748 59.2618 95.1043C59.355 95.0697 59.446 95.0306 59.5393 94.9938C59.8493 95.6225 60.2937 96.3076 60.9571 96.8235ZM15.3981 55.1129V52.0669C17.9888 51.5249 19.3048 50.1808 20.2219 49.242C21.1519 48.2925 21.3752 48.067 22.4679 48.351C23.2158 48.5418 23.851 48.7109 24.4017 48.8583C26.2401 49.3483 27.2526 49.6193 28.3539 49.6193C29.4552 49.6193 30.4677 49.3483 32.3061 48.8583C32.8546 48.7109 33.4898 48.5418 34.2399 48.3488C35.3283 48.0692 35.5494 48.2925 36.4773 49.242C37.3965 50.1786 38.7146 51.5249 41.3095 52.0669V55.1129C41.3095 59.8239 36.6963 65.6707 31.4389 67.624C30.2747 68.0576 29.2926 68.2571 28.3539 68.2571C27.4087 68.2571 26.4266 68.0576 25.2624 67.6262C20.0072 65.6705 15.3981 59.8237 15.3981 55.1129ZM35.5706 72.0335L29.5331 76.1223C29.5136 76.1353 29.494 76.1504 29.4745 76.1635C28.4274 76.9439 28.28 76.9439 27.2328 76.1635C27.2133 76.1504 27.1938 76.1353 27.1721 76.1223L21.1367 72.0335C21.7112 71.3636 22.1123 70.6004 22.4093 69.911C22.973 70.2015 23.5475 70.4574 24.1307 70.6742C25.67 71.2443 27.0119 71.5088 28.3539 71.5088C29.6915 71.5088 31.0313 71.2443 32.5706 70.6742C33.156 70.4552 33.7305 70.1994 34.2963 69.911C34.5929 70.5983 34.994 71.3636 35.5706 72.0335ZM38.7034 99.4836H16.7618V92.5745C16.7618 91.677 16.0333 90.9486 15.1358 90.9486C14.2383 90.9486 13.5098 91.677 13.5098 92.5745V99.4836H3.9907L5.86816 84.9108C6.22805 82.1206 7.05838 80.1328 8.25076 78.6521C8.34182 78.5697 8.41986 78.4765 8.49141 78.3724C10.7136 75.8359 14.0802 74.8755 17.9674 73.8153L25.3209 78.7952C26.4114 79.6016 27.3827 80.0027 28.3539 80.0027C29.3252 80.0027 30.2964 79.6016 31.3869 78.7952L38.7383 73.8153C40.013 74.1644 41.2358 74.5026 42.4 74.9036C42.1983 76.0093 42.0921 77.1692 42.0921 78.3811V82.0471C42.0921 86.0947 45.0319 90.7253 48.9904 93.4504C48.7974 93.871 48.5546 94.2677 48.2619 94.3501C48.0039 94.4195 47.7438 94.4889 47.4815 94.5604C47.0782 94.6666 46.6641 94.7772 46.2392 94.8964C46.2132 94.9051 46.185 94.9116 46.159 94.9203C43.4336 95.6919 40.4095 96.8192 38.7034 99.4836ZM70.8016 107.208H40.5917V104.702C40.5917 100.741 42.7553 99.3644 46.4211 98.2392L52.4608 101.786C52.7622 102.161 53.2283 102.482 53.9351 102.636C54.5486 102.935 55.1253 103.085 55.6998 103.085C56.2049 103.085 56.7122 102.968 57.2434 102.736C57.5447 102.606 57.8526 102.436 58.1713 102.23L62.8498 99.4836L64.9765 98.2349C66.1754 98.5969 67.216 98.985 68.0702 99.4836C69.3428 100.223 70.2078 101.209 70.5872 102.736C70.7282 103.31 70.8019 103.961 70.8019 104.702V107.208H70.8016Z" fill="#979797"/>
<path d="M25.368 63.8647C26.2344 64.7318 27.3851 65.2092 28.6092 65.2092H28.6152C29.8384 65.2077 30.987 64.729 31.849 63.8618C32.4818 63.2249 32.4788 62.1953 31.8418 61.5623C31.2046 60.9294 30.1753 60.9325 29.5425 61.5694C29.2942 61.8192 28.9634 61.9571 28.6109 61.9575C28.6102 61.9575 28.6098 61.9575 28.6092 61.9575C28.2545 61.9575 27.9204 61.8185 27.6685 61.5664C27.0337 60.931 26.0043 60.9307 25.3691 61.5653C24.7339 62.2001 24.7333 63.2294 25.368 63.8647Z" fill="#979797"/>
<path d="M21.044 55.6437C21.3789 55.3192 21.9446 55.3192 22.2795 55.6437C22.5954 55.9498 23.0032 56.102 23.4108 56.102C23.8355 56.102 24.2597 55.9366 24.5786 55.6075C25.2037 54.9628 25.1874 53.9334 24.5427 53.3084C22.9542 51.7691 20.3695 51.7691 18.7811 53.3084C18.1361 53.9332 18.12 54.9628 18.7451 55.6075C19.3699 56.2525 20.399 56.269 21.044 55.6437Z" fill="#979797"/>
<path d="M34.9405 55.6438C35.2746 55.3197 35.8361 55.3182 36.1663 55.6401C36.4824 55.9484 36.8921 56.1019 37.3014 56.1019C37.7244 56.1019 38.1469 55.9378 38.4656 55.6111C39.0926 54.9683 39.0796 53.9387 38.4368 53.3117C36.8531 51.7673 34.2695 51.7657 32.6776 53.308C32.0326 53.9331 32.0166 54.9624 32.6414 55.6072C33.2662 56.2524 34.2955 56.2686 34.9405 55.6438Z" fill="#979797"/>
<path d="M40.4074 17.6966L51.5146 28.7149C51.5596 28.7598 51.6073 28.8016 51.6572 28.8409L51.7823 28.9391C52.2473 29.3059 52.7284 29.6853 53.4573 29.7061C53.4729 29.7065 53.4883 29.7067 53.5039 29.7067C53.5199 29.7067 53.5358 29.7065 53.5518 29.7061C54.2739 29.6849 54.7531 29.3068 55.2166 28.9412L55.3443 28.8409C55.3941 28.8016 55.4418 28.7596 55.4869 28.7149L66.5941 17.6966C66.6025 17.6882 66.6108 17.6797 66.619 17.6711C70.5114 13.638 70.5118 7.07034 66.6188 3.02903C63.281 -0.427584 57.669 -0.262385 53.5037 3.38826C49.3316 -0.261084 43.7179 -0.425633 40.3814 3.03033C36.4897 7.07012 36.4901 13.6378 40.3825 17.6708C40.3907 17.6797 40.3992 17.6882 40.4074 17.6966ZM42.7221 5.28805C45.1466 2.77689 49.0348 3.74164 51.4573 5.92001C51.6208 6.06852 51.7528 6.19448 51.8614 6.29811C52.2738 6.69159 52.7412 7.13754 53.5039 7.13754C54.2631 7.13754 54.7188 6.70308 55.121 6.31957C55.2324 6.21334 55.3699 6.08218 55.5463 5.9237C57.9695 3.74077 61.8538 2.77602 64.278 5.28675C66.9665 8.07757 66.9709 12.611 64.2906 15.4012L53.5006 26.1049L42.7106 15.4012C40.0304 12.611 40.0349 8.07736 42.7221 5.28805Z" fill="#979797"/>
</g>
<defs>
<clipPath id="clip0">
<rect width="111" height="111" fill="white"/>
</clipPath>
</defs>
</svg>
