<svg width="111" height="100" viewBox="0 0 111 100" fill="none" xmlns="http://www.w3.org/2000/svg">
<path d="M107.184 30.66H106.124L96.1904 3.91491C95.3206 1.57329 93.0581 0 90.5602 0H20.4394C17.9416 0 15.6789 1.57329 14.8091 3.91491L4.87554 30.66H3.81605C1.71182 30.66 0 32.3718 0 34.4761V37.542C0 39.6462 1.71182 41.358 3.81605 41.358H4.38016V76.9972C4.38016 77.8952 5.10794 78.6232 6.00613 78.6232C6.90432 78.6232 7.6321 77.8952 7.6321 76.9972V41.358H33.1621C34.5907 41.358 35.934 40.8017 36.9445 39.7913L55.4999 21.2354L74.0557 39.7913C75.066 40.8015 76.4093 41.3578 77.8379 41.3578H103.368V45.6686C103.368 46.5666 104.096 47.2946 104.994 47.2946C105.892 47.2946 106.62 46.5666 106.62 45.6686V41.3578H107.184C109.288 41.3578 111 39.646 111 37.5418V34.4758C111 32.3718 109.288 30.66 107.184 30.66ZM17.8575 5.04702C18.2564 3.97323 19.294 3.25195 20.4394 3.25195H90.5602C91.7056 3.25195 92.7431 3.97345 93.142 5.04702L102.655 30.66H80.0536L59.2821 9.88874C58.2719 8.87846 56.9288 8.32195 55.4999 8.32195C54.071 8.32195 52.7279 8.87825 51.7177 9.88874L30.9462 30.66H8.34428L17.8575 5.04702ZM107.748 37.542C107.748 37.8531 107.495 38.1061 107.184 38.1061H77.8379C77.2777 38.1061 76.7509 37.888 76.3551 37.4919L56.6496 17.7864C56.3445 17.4814 55.9311 17.3101 55.4997 17.3101C55.0682 17.3101 54.655 17.4814 54.3498 17.7864L34.6445 37.4919C34.2484 37.888 33.7216 38.1061 33.1614 38.1061H3.81605C3.50495 38.1061 3.25195 37.8531 3.25195 37.542V34.4761C3.25195 34.165 3.50495 33.912 3.81605 33.912H31.6198C32.051 33.912 32.4644 33.7407 32.7697 33.4357L54.0174 12.1881C54.4133 11.792 54.9399 11.5739 55.5001 11.5739C56.0603 11.5739 56.5869 11.792 56.9828 12.1881L78.2306 33.4357C78.5356 33.7407 78.949 33.912 79.3805 33.912H107.184C107.495 33.912 107.748 34.165 107.748 34.4761V37.542H107.748Z" fill="#979797"/>
<path d="M97.7668 86.4718C98.665 86.4718 99.3928 85.7438 99.3928 84.8458V55.938C99.3928 55.04 98.665 54.312 97.7668 54.312H75.8667C74.9685 54.312 74.2407 55.04 74.2407 55.938V84.8458C74.2407 85.7438 74.9685 86.4718 75.8667 86.4718H97.7668ZM96.1409 76.2119H88.4426V68.5139H96.1409V76.2119ZM85.1907 76.2119H77.4927V68.5139H85.1907V76.2119ZM96.1409 83.2199H77.4927V79.4639H96.1409V83.2199ZM96.1409 65.2617H88.4426V57.5637H96.1409V65.2617ZM85.1907 57.564V65.262H77.4927V57.564H85.1907Z" fill="#979797"/>
<path d="M35.133 86.4718C36.0312 86.4718 36.759 85.7438 36.759 84.8458V55.938C36.759 55.04 36.0312 54.312 35.133 54.312H13.2329C12.3347 54.312 11.6069 55.04 11.6069 55.938V84.8458C11.6069 85.7438 12.3347 86.4718 13.2329 86.4718H35.133ZM33.5071 76.2119H25.8091V68.5139H33.5071V76.2119ZM22.5571 76.2119H14.8589V68.5139H22.5571V76.2119ZM33.5071 83.2199H14.8589V79.4639H33.5071V83.2199ZM33.5071 65.2617H25.8091V57.5637H33.5071V65.2617ZM22.5571 57.564V65.262H14.8589V57.564H22.5571Z" fill="#979797"/>
<path d="M60.7559 61.3199H50.2439C49.3457 61.3199 48.6179 62.0479 48.6179 62.9459V69.9539C48.6179 70.8518 49.3457 71.5798 50.2439 71.5798H60.7559C61.6541 71.5798 62.3819 70.8518 62.3819 69.9539V62.9459C62.3819 62.0479 61.6541 61.3199 60.7559 61.3199ZM59.1299 68.3279H51.8699V64.5719H59.1299V68.3279Z" fill="#979797"/>
<path d="M64.1338 40.8269C64.1338 36.0663 60.2607 32.193 55.4999 32.193C50.739 32.193 46.866 36.0663 46.866 40.8269C46.866 45.5875 50.739 49.461 55.4999 49.461C60.2607 49.461 64.1338 45.5878 64.1338 40.8269ZM50.1179 40.8269C50.1179 37.8594 52.5324 35.4449 55.4999 35.4449C58.4674 35.4449 60.8819 37.8594 60.8819 40.8269C60.8819 43.7944 58.4674 46.2091 55.4999 46.2091C52.5324 46.2091 50.1179 43.7946 50.1179 40.8269Z" fill="#979797"/>
<path d="M109.374 88.9138H106.62V53.2747C106.62 52.3767 105.892 51.6487 104.994 51.6487C104.096 51.6487 103.368 52.3767 103.368 53.2747V88.9138H69.3898V55.938C69.3898 55.04 68.662 54.312 67.7639 54.312H43.2359C42.3377 54.312 41.61 55.04 41.61 55.938V88.9138H7.63189V84.603C7.63189 83.7051 6.9041 82.9771 6.00591 82.9771C5.10772 82.9771 4.37994 83.7051 4.37994 84.603V88.9138H1.62597C0.727786 88.9138 0 89.6418 0 90.5398V97.9859C0 98.8839 0.727786 99.6119 1.62597 99.6119H109.374C110.272 99.6119 111 98.8839 111 97.9859V90.5398C111 89.6418 110.272 88.9138 109.374 88.9138ZM44.8619 77.0548H47.1782C48.0764 77.0548 48.8041 76.3268 48.8041 75.4289C48.8041 74.5309 48.0764 73.8029 47.1782 73.8029H44.8619V57.564H66.1381V88.9138H44.8619V77.0548ZM107.748 96.3599H3.25195V92.1658H107.748V96.3599Z" fill="#979797"/>
</svg>
