<svg width="110" height="110" viewBox="0 0 110 110" fill="none" xmlns="http://www.w3.org/2000/svg">
<path d="M53.3887 106.777H56.6113V110H53.3887V106.777Z" fill="#979797"/>
<path d="M3.43774 110H50.166V106.777H6.6604V3.22266H80.7813V93.8867H67.8907V106.777H59.834V110H70.1691L84.0039 96.1653V0H3.43774V110ZM78.5024 97.1094L71.1133 104.499V97.1094H78.5024Z" fill="#979797"/>
<path d="M74.3359 6.44531H77.5586V9.66797H74.3359V6.44531Z" fill="#979797"/>
<path d="M74.3359 12.8906H77.5586V16.1133H74.3359V12.8906Z" fill="#979797"/>
<path d="M106.562 27.7857V10.0615C106.562 7.39593 104.394 5.22729 101.729 5.22729H95.2832C92.6176 5.22729 90.4492 7.39593 90.4492 10.0615V94.1492L98.5059 106.033L106.562 94.1492V31.0083H103.34V89.0976C102.836 88.9186 102.293 88.8204 101.729 88.8204H100.117V85.5978H96.8945V88.8204H95.2832C94.7184 88.8204 94.1761 88.9188 93.6719 89.0976V21.3406H96.8945V82.3751H100.117V21.3406H103.34V27.7857H106.562ZM95.2832 92.0431H101.729C102.474 92.0431 103.101 92.5529 103.284 93.2417L98.5059 100.29L93.7275 93.2417C93.9104 92.5529 94.5375 92.0431 95.2832 92.0431ZM93.6719 18.1179V10.0615C93.6719 9.1729 94.3946 8.44995 95.2832 8.44995H101.729C102.617 8.44995 103.34 9.1729 103.34 10.0615V18.1179H93.6719Z" fill="#979797"/>
<path d="M58.2227 57.417C58.2227 54.7517 56.0542 52.5833 53.3887 52.5833C50.7231 52.5833 48.5547 54.7517 48.5547 57.417C48.5547 60.0824 50.7231 62.251 53.3887 62.251C56.054 62.251 58.2227 60.0824 58.2227 57.417ZM51.7773 57.417C51.7773 56.5286 52.5003 55.8059 53.3887 55.8059C54.2771 55.8059 55 56.5286 55 57.417C55 58.3056 54.2773 59.0283 53.3887 59.0283C52.5001 59.0283 51.7773 58.3056 51.7773 57.417Z" fill="#979797"/>
<path d="M67.8906 30.0247C67.8906 22.0284 61.3852 15.5229 53.3887 15.5229C45.3922 15.5229 38.8867 22.0284 38.8867 30.0247V31.636H48.5547V30.0247C48.5547 27.3593 50.7233 25.1909 53.3887 25.1909C56.054 25.1909 58.2227 27.3593 58.2227 30.0247C58.2227 32.69 56.0542 34.8587 53.3887 34.8587C50.7231 34.8587 48.5547 37.0273 48.5547 39.6927V44.5266C48.5547 47.192 50.7233 49.3606 53.3887 49.3606C56.054 49.3606 58.2227 47.192 58.2227 44.5266V43.7019C63.974 41.6759 67.8906 36.2206 67.8906 30.0247ZM56.2096 40.9489L55 41.2602V44.5266C55 45.4152 54.2773 46.138 53.3887 46.138C52.5001 46.138 51.7773 45.4152 51.7773 44.5266V39.6927C51.7773 38.8041 52.5003 38.0813 53.3887 38.0813C57.8312 38.0813 61.4453 34.4672 61.4453 30.0247C61.4453 25.5824 57.8312 21.9683 53.3887 21.9683C49.4981 21.9683 46.2425 24.7406 45.4938 28.4134H42.2241C43.0083 22.9546 47.7162 18.7456 53.3887 18.7456C59.6082 18.7456 64.668 23.8054 64.668 30.0247C64.668 35.1749 61.1899 39.6671 56.2096 40.9489V40.9489Z" fill="#979797"/>
<path d="M16.3281 25.1909H32.4414V28.4136H16.3281V25.1909Z" fill="#979797"/>
<path d="M16.3281 49.3604H32.4414V52.583H16.3281V49.3604Z" fill="#979797"/>
<path d="M16.3281 41.304H32.4414V44.5266H16.3281V41.304Z" fill="#979797"/>
<path d="M16.3281 33.2473H32.4414V36.47H16.3281V33.2473Z" fill="#979797"/>
<path d="M41.3035 84.8091H63.0564V88.0317H41.3035V84.8091Z" fill="#979797"/>
<path d="M16.3281 92.8657H63.0564V96.0884H16.3281V92.8657Z" fill="#979797"/>
<path d="M16.3281 84.8091H38.0808V88.0317H16.3281V84.8091Z" fill="#979797"/>
<path d="M16.3281 76.7527H63.0564V79.9753H16.3281V76.7527Z" fill="#979797"/>
<path d="M41.3037 68.696H63.0564V71.9187H41.3037V68.696Z" fill="#979797"/>
<path d="M16.3281 68.696H38.0811V71.9187H16.3281V68.696Z" fill="#979797"/>
</svg>
