<svg width="110" height="110" viewBox="0 0 110 110" fill="none" xmlns="http://www.w3.org/2000/svg">
<g clip-path="url(#clip0)">
<path d="M51.4517 46.129H47.9033V49.6774H51.4517V46.129Z" fill="#979797"/>
<path d="M44.355 51.4517H40.8066V55H44.355V51.4517Z" fill="#979797"/>
<path d="M37.2578 56.7742H33.7094V60.3226H37.2578V56.7742Z" fill="#979797"/>
<path d="M30.1611 62.0968H26.6127V65.6452H30.1611V62.0968Z" fill="#979797"/>
<path d="M88.7099 56.7742C92.6238 56.7742 95.8066 59.957 95.8066 63.8709C95.8066 67.7849 92.6238 70.9677 88.7099 70.9677C84.7959 70.9677 81.6131 67.7849 81.6131 63.8709C81.6131 59.957 84.7959 56.7742 88.7099 56.7742ZM88.7099 67.4193C90.6669 67.4193 92.2583 65.8279 92.2583 63.8709C92.2583 61.914 90.6669 60.3226 88.7099 60.3226C86.7529 60.3226 85.1615 61.914 85.1615 63.8709C85.1615 65.8279 86.7529 67.4193 88.7099 67.4193Z" fill="#979797"/>
<path d="M69.1938 70.9678C73.1077 70.9678 76.2905 74.1506 76.2905 78.0646C76.2905 81.9785 73.1077 85.1613 69.1938 85.1613C65.2798 85.1613 62.097 81.9785 62.097 78.0646C62.097 74.1506 65.2798 70.9678 69.1938 70.9678ZM69.1938 81.6129C71.1507 81.6129 72.7421 80.0215 72.7421 78.0646C72.7421 76.1076 71.1507 74.5162 69.1938 74.5162C67.2368 74.5162 65.6454 76.1076 65.6454 78.0646C65.6454 80.0215 67.2368 81.6129 69.1938 81.6129Z" fill="#979797"/>
<path d="M9.17764 106.452C10.8669 106.452 11.6284 105.862 12.6836 105.048C13.9189 104.092 15.4566 102.903 18.3579 102.903C21.2583 102.903 22.7951 104.092 24.0296 105.048C25.0821 105.862 25.841 106.452 27.5286 106.452C29.2118 106.452 29.9733 105.862 31.025 105.048C32.2603 104.092 33.7946 102.903 36.6941 102.903C39.5928 102.903 41.1296 104.092 42.3641 105.048C43.4166 105.862 44.1755 106.452 45.8631 106.452C47.5463 106.452 48.3078 105.862 49.3595 105.048C50.5948 104.092 52.1291 102.903 55.0286 102.903C57.9272 102.903 59.4641 104.092 60.6986 105.048C61.7511 105.862 62.51 106.452 64.1958 106.452C65.8808 106.452 66.6405 105.862 67.6922 105.048C68.9276 104.092 70.4618 102.903 73.3613 102.903C76.26 102.903 77.7968 104.092 79.0296 105.048C80.0821 105.862 80.8393 106.452 82.5251 106.452C84.2066 106.452 84.9646 105.862 86.0163 105.05C87.2491 104.094 88.7842 102.903 91.6811 102.903C94.5806 102.903 96.1166 104.092 97.3502 105.048C98.4019 105.862 99.1617 106.452 100.845 106.452C102.527 106.452 103.286 105.862 104.337 105.048C105.57 104.094 107.105 102.903 110 102.903V106.452C108.318 106.452 107.559 107.041 106.509 107.855C105.275 108.81 103.741 110 100.845 110C97.948 110 96.4111 108.811 95.1784 107.855C94.1267 107.041 93.3652 106.452 91.6811 106.452C89.9996 106.452 89.2399 107.041 88.1882 107.855C86.9554 108.811 85.4203 110 82.5251 110C79.6273 110 78.0914 108.811 76.8578 107.855C75.8061 107.041 75.0446 106.452 73.3613 106.452C71.6772 106.452 70.9166 107.041 69.8641 107.855C68.6296 108.811 67.0928 110 64.1958 110C61.298 110 59.7621 108.811 58.5267 107.855C57.475 107.041 56.7136 106.452 55.0286 106.452C53.3445 106.452 52.5839 107.041 51.5313 107.855C50.2968 108.811 48.76 110 45.8631 110C42.9653 110 41.4276 108.811 40.1922 107.855C39.1405 107.041 38.3791 106.452 36.6941 106.452C35.01 106.452 34.2494 107.041 33.1968 107.855C31.9623 108.811 30.4255 110 27.5286 110C24.6308 110 23.0931 108.811 21.8578 107.855C20.8061 107.041 20.0446 106.452 18.3579 106.452C16.6686 106.452 15.9071 107.041 14.8519 107.855C13.6166 108.811 12.0789 110 9.17764 110C6.27725 110 4.74042 108.811 3.50594 107.855C2.44991 107.041 1.6893 106.452 1.43051e-06 106.452V102.903C2.90039 102.903 4.43895 104.092 5.6743 105.048C6.72946 105.862 7.49094 106.452 9.17764 106.452Z" fill="#979797"/>
<path d="M7.6079 97.3233C7.27957 96.5956 7.09678 95.7977 7.09678 94.9652V94.2011C7.09678 92.4139 7.9059 90.7602 9.31798 89.666L14.1935 85.8855V61.2183L20.5029 56.412L13.4381 47.5818L23.3764 40.1307L30.3813 48.8864L34.5396 45.7175L22.245 31.6643L32.1876 24.2054L44.4224 38.1858L52.8975 31.7275L74.6686 38.9845L93.6476 24.2652C94.6482 23.4924 95.8965 23.0645 97.164 23.0645C100.329 23.0645 102.903 25.6391 102.903 28.8037V73.6359L75.1693 94.2133C76.9522 94.5788 78.0844 95.4443 79.0296 96.1789C80.0821 96.9915 80.8393 97.5806 82.5251 97.5806C84.2066 97.5806 84.9646 96.9915 86.0163 96.1789C87.2491 95.2225 88.7842 94.0322 91.6811 94.0322C94.5806 94.0322 96.1166 95.2208 97.3502 96.1772C98.4019 96.9915 99.1617 97.5806 100.845 97.5806C102.527 97.5806 103.286 96.9915 104.337 96.1772C105.57 95.2225 107.105 94.0322 110 94.0322V97.5806C108.318 97.5806 107.559 98.1697 106.509 98.984C105.275 99.9387 103.741 101.129 100.845 101.129C97.948 101.129 96.4111 99.9404 95.1784 98.984C94.1267 98.1697 93.3652 97.5806 91.6811 97.5806C89.9996 97.5806 89.2399 98.1697 88.1882 98.984C86.9554 99.9404 85.4203 101.129 82.5251 101.129C79.6273 101.129 78.0914 99.9404 76.8578 98.984C75.8061 98.1697 75.0446 97.5806 73.3613 97.5806C71.6772 97.5806 70.9166 98.1697 69.8641 98.984C68.6296 99.9404 67.0928 101.129 64.1958 101.129C61.298 101.129 59.7621 99.9404 58.5267 98.984C57.475 98.1697 56.7136 97.5806 55.0286 97.5806C53.3445 97.5806 52.5839 98.1697 51.5313 98.984C50.2968 99.9404 48.76 101.129 45.8631 101.129C42.9653 101.129 41.4276 99.9404 40.1922 98.984C39.1405 98.1697 38.3791 97.5806 36.6941 97.5806C35.01 97.5806 34.2494 98.1697 33.1968 98.984C31.9623 99.9404 30.4255 101.129 27.5286 101.129C24.6308 101.129 23.0931 99.9404 21.8578 98.984C20.8061 98.1697 20.0446 97.5806 18.3579 97.5806C16.6686 97.5806 15.9071 98.1697 14.8519 98.984C13.6166 99.9404 12.0789 101.129 9.17764 101.129C6.27725 101.129 4.74042 99.9404 3.50594 98.984C2.44991 98.1697 1.6893 97.5806 1.43051e-06 97.5806V94.0322C2.90039 94.0322 4.43895 95.2208 5.6743 96.1772C6.32836 96.6831 6.89059 97.0781 7.6079 97.3233V97.3233ZM22.7526 45.0305L18.4974 48.2246L23.327 54.2601L27.5589 51.0366L22.7526 45.0305ZM31.6834 29.0186L27.4324 32.2048L37.3681 43.5595L41.5905 40.3429L31.6834 29.0186ZM53.5559 35.69L17.7419 62.9751V83.1332L71.2943 41.6034L53.5559 35.69ZM52.4842 94.403C52.9581 93.787 53.2258 93.0472 53.2258 92.258C53.2258 90.301 51.6344 88.7096 49.6774 88.7096C47.7204 88.7096 46.129 90.301 46.129 92.258C46.129 94.215 47.7204 95.8064 49.6774 95.8064C49.7415 95.8064 49.8013 95.7943 49.8654 95.7925C50.5645 95.271 51.391 94.7434 52.4842 94.403V94.403ZM18.3579 94.0322C19.6495 94.0322 20.6605 94.2756 21.5052 94.6213L30.8535 87.4162L33.0192 90.2265L24.6741 96.6597C25.4451 97.2098 26.2014 97.5806 27.5286 97.5806C29.2118 97.5806 29.9733 96.9915 31.025 96.1772C32.2603 95.2208 33.7946 94.0322 36.6941 94.0322C39.5928 94.0322 41.1296 95.2208 42.3641 96.1772C43.1949 96.8208 43.8619 97.3094 44.9257 97.4922C43.4963 96.1928 42.5806 94.3371 42.5806 92.258C42.5806 88.344 45.7635 85.1612 49.6774 85.1612C53.5914 85.1612 56.7742 88.344 56.7742 92.258C56.7742 92.9129 56.6555 93.5427 56.4866 94.1543C58.4704 94.4723 59.6928 95.3966 60.6986 96.1772C61.7511 96.9915 62.51 97.5806 64.1958 97.5806C64.4029 97.5806 64.5614 97.5468 64.7442 97.5295L99.3548 71.8496V39.0911L36.5659 87.4907L34.4001 84.6804L99.3548 34.6106V28.8037C99.3548 27.5961 98.3716 26.6128 97.164 26.6128C96.6814 26.6128 96.2041 26.7757 95.822 27.072L11.495 92.4694C10.9536 92.8878 10.6452 93.5176 10.6452 94.2011V94.9652C10.6452 95.7535 11.08 96.4544 11.7506 96.8425C12.0555 96.6458 12.357 96.4275 12.6818 96.1772C13.9189 95.2208 15.4566 94.0322 18.3579 94.0322V94.0322Z" fill="#979797"/>
<path d="M10.645 7.09677C10.645 3.18281 13.8278 0 17.7418 0C21.6558 0 24.8386 3.18281 24.8386 7.09677H21.2902C21.2902 5.13979 19.6988 3.54839 17.7418 3.54839C15.7848 3.54839 14.1934 5.13979 14.1934 7.09677C14.1934 9.05376 15.7848 10.6452 17.7418 10.6452H46.1289V14.1935H17.7418C13.8278 14.1935 10.645 11.0107 10.645 7.09677Z" fill="#979797"/>
<path d="M54.9999 23.9516C54.9999 20.5271 57.7851 17.7419 61.2096 17.7419C64.6341 17.7419 67.4192 20.5271 67.4192 23.9516V24.8387H63.8709V23.9516C63.8709 22.4841 62.6771 21.2903 61.2096 21.2903C59.742 21.2903 58.5483 22.4841 58.5483 23.9516C58.5483 25.4191 59.742 26.6129 61.2096 26.6129H81.6128V30.1613H61.2096C57.7851 30.1613 54.9999 27.3761 54.9999 23.9516Z" fill="#979797"/>
<path d="M12.4196 35.4839H8.87117V34.5968C8.87117 33.1292 7.6774 31.9355 6.20988 31.9355C4.74236 31.9355 3.54859 33.1292 3.54859 34.5968C3.54859 36.0643 4.74236 37.2581 6.20988 37.2581H21.2905V40.8064H6.20988C2.78538 40.8064 0.00020647 38.0213 0.00020647 34.5968C0.00020647 31.1723 2.78538 28.3871 6.20988 28.3871C9.63439 28.3871 12.4196 31.1723 12.4196 34.5968V35.4839Z" fill="#979797"/>
<path d="M53.2256 10.6451H49.6772V14.1935H53.2256V10.6451Z" fill="#979797"/>
<path d="M60.3228 10.6451H56.7744V14.1935H60.3228V10.6451Z" fill="#979797"/>
</g>
<defs>
<clipPath id="clip0">
<rect width="110" height="110" fill="white" transform="matrix(-1 0 0 1 110 0)"/>
</clipPath>
</defs>
</svg>
