<svg width="100" height="111" viewBox="0 0 100 111" fill="none" xmlns="http://www.w3.org/2000/svg">
<path d="M69.375 0C68.1778 0 67.207 0.970816 67.207 2.16797V12.1406C67.207 13.3378 68.1778 14.3086 69.375 14.3086C70.5722 14.3086 71.543 13.3378 71.543 12.1406V2.16797C71.543 0.970816 70.5722 0 69.375 0Z" fill="#979797"/>
<path d="M19.5117 67.6406C18.315 67.6406 17.3438 68.6119 17.3438 69.8086C17.3438 71.0053 18.315 71.9766 19.5117 71.9766C20.7084 71.9766 21.6797 71.0053 21.6797 69.8086C21.6797 68.6119 20.7084 67.6406 19.5117 67.6406Z" fill="#979797"/>
<path d="M99.7266 63.3047C99.7266 58.523 95.8364 54.6328 91.0547 54.6328H74.8704C77.3759 48.215 78.3901 40.6609 78.1945 33.9365C78.1572 32.6533 78.108 31.9112 78.0415 31.444C77.9294 26.7597 74.083 22.9805 69.375 22.9805C64.5933 22.9805 60.7031 26.8707 60.7031 31.6523V33.8203C60.7031 47.5318 43.0962 55.2357 29.8087 58.5393C28.8041 56.2425 26.5108 54.6328 23.8477 54.6328H2.16797C0.970816 54.6328 0 55.6036 0 56.8008V108.832C0 110.029 0.970816 111 2.16797 111H23.8477C26.493 111 28.7731 109.412 29.7881 107.139C30.8884 107.421 31.9097 107.688 32.8525 107.934C40.422 109.911 44.5916 111 54.7325 111H78.0469C82.8285 111 86.7188 107.11 86.7188 102.328C86.7188 100.545 86.1774 98.8867 85.251 97.507C88.6001 96.3356 91.0547 93.1357 91.0547 89.3203C91.0547 87.5439 90.5266 85.88 89.603 84.494C92.9373 83.3207 95.3906 80.1281 95.3906 76.3125C95.3906 74.5296 94.8493 72.8711 93.9229 71.4914C97.272 70.32 99.7266 67.1201 99.7266 63.3047ZM26.0156 104.496C26.0156 105.692 25.0431 106.664 23.8477 106.664H4.33594V58.9688H23.8477C25.0431 58.9688 26.0156 59.9413 26.0156 61.1367V104.496ZM91.0547 67.6406C86.4046 67.6406 85.2961 67.6406 80.2148 67.6406C79.0177 67.6406 78.0469 68.6114 78.0469 69.8086C78.0469 71.0057 79.0177 71.9766 80.2148 71.9766H86.7188C89.1096 71.9766 91.0547 73.9217 91.0547 76.3125C91.0547 78.7072 89.1135 80.6484 86.7188 80.6484H75.8789C74.6818 80.6484 73.7109 81.6193 73.7109 82.8164C73.7109 84.0136 74.6818 84.9844 75.8789 84.9844H82.3828C84.7452 84.9844 86.7188 86.8716 86.7188 89.3203C86.7188 91.715 84.7775 93.6562 82.3828 93.6562C77.7327 93.6562 76.6243 93.6562 71.543 93.6562C70.3458 93.6562 69.375 94.6271 69.375 95.8242C69.375 97.0214 70.3458 97.9922 71.543 97.9922H78.0469C80.4377 97.9922 82.3828 99.9373 82.3828 102.328C82.3828 104.719 80.4377 106.664 78.0469 106.664H54.7325C45.1486 106.664 41.4054 105.687 33.9482 103.739C32.8558 103.454 31.6575 103.141 30.3516 102.808V62.8765C46.0407 59.1394 65.0391 50.0174 65.0391 33.8203V31.6523C65.0391 29.2615 66.9842 27.3164 69.375 27.3164C71.7615 27.3164 73.7064 29.2585 73.7109 31.6456V31.6523C73.7109 32.5945 74.8868 44.1578 70.1715 54.6328H62.8711C61.6739 54.6328 60.7031 55.6036 60.7031 56.8008C60.7031 57.9979 61.6739 58.9688 62.8711 58.9688C64.385 58.9688 88.5836 58.9688 91.0547 58.9688C93.4455 58.9688 95.3906 60.9139 95.3906 63.3047C95.3906 65.6994 93.4494 67.6406 91.0547 67.6406Z" fill="#979797"/>
<path d="M19.5117 76.3125C18.3146 76.3125 17.3438 77.2833 17.3438 78.4805V95.8242C17.3438 97.0214 18.3146 97.9922 19.5117 97.9922C20.7089 97.9922 21.6797 97.0214 21.6797 95.8242V78.4805C21.6797 77.2833 20.7089 76.3125 19.5117 76.3125Z" fill="#979797"/>
<path d="M52.0312 27.3164H43.3594C42.1622 27.3164 41.1914 28.2872 41.1914 29.4844C41.1914 30.6815 42.1622 31.6523 43.3594 31.6523H52.0312C53.2284 31.6523 54.1992 30.6815 54.1992 29.4844C54.1992 28.2872 53.2284 27.3164 52.0312 27.3164Z" fill="#979797"/>
<path d="M95.3906 27.3164H86.7188C85.5216 27.3164 84.5508 28.2872 84.5508 29.4844C84.5508 30.6815 85.5216 31.6523 86.7188 31.6523H95.3906C96.5878 31.6523 97.5586 30.6815 97.5586 29.4844C97.5586 28.2872 96.5878 27.3164 95.3906 27.3164Z" fill="#979797"/>
<path d="M89.3031 9.55617C88.4563 8.70979 87.084 8.70979 86.2369 9.55617L80.1061 15.687C79.2595 16.5336 79.2595 17.9063 80.1061 18.7531C80.9532 19.5997 82.3253 19.5995 83.1723 18.7531L89.3031 12.6223C90.1497 11.7757 90.1497 10.403 89.3031 9.55617Z" fill="#979797"/>
<path d="M58.6439 15.687L52.5131 9.55617C51.6663 8.70979 50.294 8.70979 49.447 9.55617C48.6004 10.4028 48.6004 11.7755 49.447 12.6223L55.5778 18.7531C56.425 19.5997 57.7971 19.5995 58.6439 18.7531C59.4905 17.9065 59.4905 16.5338 58.6439 15.687Z" fill="#979797"/>
</svg>
