<svg width="111" height="111" viewBox="0 0 111 111" fill="none" xmlns="http://www.w3.org/2000/svg">
<path d="M104.496 59.8335H102.328V44.6577C102.328 38.675 98.127 33.6583 92.5207 32.394L82.6532 15.303C81.2071 12.7983 78.8722 11.0065 76.0784 10.2579C74.1057 9.72957 72.0717 9.76838 70.1644 10.3442L62.9893 3.16887C58.7671 -1.05282 51.8981 -1.05325 47.676 3.16887L18.7618 32.0835H12.5742C5.64084 32.0835 0 37.7243 0 44.6577V98.4233C0 105.357 5.64084 110.998 12.5742 110.998H41.4082C42.6054 110.998 43.5762 110.027 43.5762 108.83C43.5762 107.632 42.6054 106.662 41.4082 106.662H12.5742C8.03167 106.662 4.33594 102.966 4.33594 98.4233V44.6577C4.33594 40.1152 8.03167 36.4194 12.5742 36.4194H89.7539C94.2964 36.4194 97.9922 40.1152 97.9922 44.6577V59.8335H81.9492C75.4941 59.8335 70.2422 65.0854 70.2422 71.5405C70.2422 77.9957 75.4941 83.2476 81.9492 83.2476H97.9922V98.4233C97.9922 102.966 94.2964 106.662 89.7539 106.662H60.9199C59.7228 106.662 58.752 107.632 58.752 108.83C58.752 110.027 59.7228 110.998 60.9199 110.998H89.7539C96.6873 110.998 102.328 105.357 102.328 98.4233V83.2476H104.496C108.082 83.2476 111 80.3299 111 76.7437V66.3374C111 62.7514 108.082 59.8335 104.496 59.8335ZM74.9562 14.4462C76.6312 14.895 78.0313 15.9692 78.8982 17.471L87.3349 32.0835H40.6045L70.0299 15.0946C71.5315 14.2279 73.2806 13.9972 74.9562 14.4462ZM50.7422 6.23503C51.9682 5.00882 53.5987 4.3335 55.3326 4.3335C57.0668 4.3335 58.6973 5.00882 59.9233 6.23503L66.0654 12.3771L31.9329 32.0835H24.8939L50.7422 6.23503ZM106.664 76.7437C106.664 77.9391 105.692 78.9116 104.496 78.9116H81.9492C77.8847 78.9116 74.5781 75.605 74.5781 71.5405C74.5781 67.476 77.8847 64.1694 81.9492 64.1694H104.496C105.692 64.1694 106.664 65.142 106.664 66.3374V76.7437Z" fill="#979797"/>
<path d="M81.5872 69.3726C81.017 69.3726 80.4577 69.6043 80.0544 70.0078C79.6512 70.4112 79.4192 70.9682 79.4192 71.5405C79.4192 72.1107 79.651 72.67 80.0544 73.0731C80.4577 73.4763 81.017 73.7085 81.5872 73.7085C82.1595 73.7085 82.7167 73.4765 83.1197 73.0731C83.5251 72.67 83.7551 72.1107 83.7551 71.5405C83.7551 70.9704 83.5251 70.411 83.1197 70.0078C82.7167 69.6045 82.1595 69.3726 81.5872 69.3726Z" fill="#979797"/>
<path d="M51.1641 106.662C50.5939 106.662 50.0345 106.893 49.6313 107.297C49.2281 107.7 48.9961 108.259 48.9961 108.83C48.9961 109.4 49.2278 109.959 49.6313 110.362C50.0345 110.765 50.5939 110.998 51.1641 110.998C51.7342 110.998 52.2936 110.766 52.6966 110.362C53.0998 109.959 53.332 109.4 53.332 108.83C53.332 108.259 53.1001 107.7 52.6966 107.297C52.2936 106.894 51.7342 106.662 51.1641 106.662Z" fill="#979797"/>
</svg>
