<svg width="111" height="111" viewBox="0 0 111 111" fill="none" xmlns="http://www.w3.org/2000/svg">
<path d="M66.6 66.6C65.121 66.5943 63.6754 67.0396 62.456 67.8765C61.9543 66.429 61.0157 65.1729 59.7698 64.2815C58.5238 63.3902 57.032 62.9074 55.5 62.9C54.1958 62.9051 52.9172 63.2631 51.8 63.936V5.55C51.7956 4.0794 51.2095 2.67029 50.1696 1.63041C49.1297 0.590533 47.7206 0.00439207 46.25 0H5.55C4.0794 0.00439207 2.67029 0.590533 1.63041 1.63041C0.590533 2.67029 0.00439207 4.0794 0 5.55V83.25C0.00439207 84.7206 0.590533 86.1297 1.63041 87.1696C2.67029 88.2095 4.0794 88.7956 5.55 88.8H14.356C14.7064 92.1716 15.7655 95.431 17.464 98.3645L24.2905 110.075C24.4519 110.355 24.6837 110.587 24.9628 110.749C25.2419 110.912 25.5586 110.998 25.8815 111H57.3685C57.673 110.997 57.9721 110.92 58.2397 110.775C58.5074 110.63 58.7355 110.421 58.904 110.168L69.967 93.573C72.6013 89.6237 74.0049 84.9817 74 80.2345V74C74 72.0374 73.2204 70.1552 71.8326 68.7674C70.4448 67.3796 68.5626 66.6 66.6 66.6ZM12.95 3.7H38.85V5.55C38.85 6.04065 38.6551 6.51121 38.3082 6.85815C37.9612 7.20509 37.4907 7.4 37 7.4H14.8C14.3094 7.4 13.8388 7.20509 13.4919 6.85815C13.1449 6.51121 12.95 6.04065 12.95 5.55V3.7ZM14.245 85.1H5.55C5.05935 85.1 4.5888 84.9051 4.24185 84.5582C3.89491 84.2112 3.7 83.7407 3.7 83.25V5.55C3.7 5.05935 3.89491 4.5888 4.24185 4.24185C4.5888 3.89491 5.05935 3.7 5.55 3.7H9.25V5.55C9.25439 7.0206 9.84053 8.42971 10.8804 9.46959C11.9203 10.5095 13.3294 11.0956 14.8 11.1H37C38.4706 11.0956 39.8797 10.5095 40.9196 9.46959C41.9595 8.42971 42.5456 7.0206 42.55 5.55V3.7H46.25C46.7407 3.7 47.2112 3.89491 47.5582 4.24185C47.9051 4.5888 48.1 5.05935 48.1 5.55V60.236C46.9848 59.5583 45.705 59.1999 44.4 59.1999C43.0951 59.1999 41.8152 59.5583 40.7 60.236V53.6315C41.0553 53.3751 41.3894 53.0905 41.699 52.7805C42.6341 51.8449 43.3571 50.7192 43.819 49.4796C44.2809 48.2401 44.4709 46.9158 44.3762 45.5964C44.2815 44.277 43.9042 42.9934 43.2699 41.8326C42.6356 40.6718 41.7592 39.6609 40.7 38.8685V33.3C40.6935 32.7259 40.619 32.1546 40.478 31.598C40.9102 31.2903 41.3184 30.9501 41.699 30.5805C42.9896 29.2858 43.8677 27.6378 44.2223 25.8444C44.577 24.0511 44.3923 22.1929 43.6915 20.5044C42.9908 18.816 41.8055 17.373 40.2853 16.3577C38.7651 15.3424 36.9781 14.8004 35.15 14.8H16.65C14.1967 14.8 11.844 15.7746 10.1093 17.5093C8.37455 19.244 7.4 21.5967 7.4 24.05C7.4 26.5033 8.37455 28.856 10.1093 30.5907C11.844 32.3255 14.1967 33.3 16.65 33.3H25.9V37H16.65C14.1967 37 11.844 37.9746 10.1093 39.7093C8.37455 41.444 7.4 43.7967 7.4 46.25C7.4 48.7033 8.37455 51.056 10.1093 52.7907C11.844 54.5255 14.1967 55.5 16.65 55.5H25.9V59.2H16.65C14.2679 59.1868 11.9731 60.096 10.2465 61.7371C8.51985 63.3783 7.49539 65.624 7.38777 68.0037C7.28014 70.3834 8.0977 72.7124 9.66914 74.5027C11.2406 76.293 13.4439 77.4057 15.8175 77.6075C14.8975 80.0053 14.3667 82.5347 14.245 85.1ZM39.0905 27.9535C38.9697 28.0742 38.8398 28.1856 38.702 28.2865C37.9239 27.4334 36.9548 26.7765 35.8742 26.3696C34.7935 25.9628 33.6319 25.8175 32.4844 25.9456C31.3368 26.0737 30.2358 26.4716 29.2715 27.1067C28.3072 27.7419 27.5068 28.5963 26.936 29.6H16.65C15.178 29.6 13.7664 29.0153 12.7256 27.9744C11.6847 26.9336 11.1 25.522 11.1 24.05C11.1 22.578 11.6847 21.1664 12.7256 20.1256C13.7664 19.0847 15.178 18.5 16.65 18.5H35.15C36.6206 18.5044 38.0297 19.0905 39.0696 20.1304C40.1095 21.1703 40.6956 22.5794 40.7 24.05C40.703 24.7747 40.5623 25.4929 40.286 26.1629C40.0098 26.8329 39.6034 27.4415 39.0905 27.9535ZM25.9 40.7V51.8H16.65C15.178 51.8 13.7664 51.2153 12.7256 50.1744C11.6847 49.1336 11.1 47.722 11.1 46.25C11.1 44.778 11.6847 43.3664 12.7256 42.3256C13.7664 41.2847 15.178 40.7 16.65 40.7H25.9ZM16.65 74C15.178 74 13.7664 73.4153 12.7256 72.3744C11.6847 71.3336 11.1 69.922 11.1 68.45C11.1 66.9781 11.6847 65.5664 12.7256 64.5256C13.7664 63.4847 15.178 62.9 16.65 62.9H25.9V64.084L17.834 74H16.65ZM70.3 80.2345C70.3021 84.2494 69.1179 88.1754 66.896 91.5195L56.3695 107.3H26.9545L20.646 96.496C18.9407 93.5799 17.9915 90.2837 17.8849 86.9073C17.7783 83.5309 18.5176 80.1814 20.0355 77.1635L25.9 69.9485V79.55H29.6V33.3C29.6 32.3187 29.9898 31.3776 30.6837 30.6837C31.3776 29.9898 32.3187 29.6 33.3 29.6C34.2813 29.6 35.2224 29.9898 35.9163 30.6837C36.6102 31.3776 37 32.3187 37 33.3V79.55H40.7V66.6C40.7 65.6187 41.0898 64.6776 41.7837 63.9837C42.4776 63.2898 43.4187 62.9 44.4 62.9C45.3813 62.9 46.3224 63.2898 47.0163 63.9837C47.7102 64.6776 48.1 65.6187 48.1 66.6V81.4H51.8V70.3C51.8 69.3187 52.1898 68.3776 52.8837 67.6837C53.5776 66.9898 54.5187 66.6 55.5 66.6C56.4813 66.6 57.4224 66.9898 58.1163 67.6837C58.8102 68.3776 59.2 69.3187 59.2 70.3V85.1H62.9V74C62.9 73.0187 63.2898 72.0776 63.9837 71.3837C64.6776 70.6898 65.6187 70.3 66.6 70.3C67.5813 70.3 68.5224 70.6898 69.2163 71.3837C69.9102 72.0776 70.3 73.0187 70.3 74V80.2345Z" fill="#979797"/>
<path d="M105.45 0H64.75C63.278 0 61.8663 0.584731 60.8255 1.62556C59.7847 2.66638 59.2 4.07805 59.2 5.55V27.75C59.2 29.222 59.7847 30.6336 60.8255 31.6744C61.8663 32.7153 63.278 33.3 64.75 33.3H105.45C106.922 33.3 108.334 32.7153 109.374 31.6744C110.415 30.6336 111 29.222 111 27.75V5.55C111 4.07805 110.415 2.66638 109.374 1.62556C108.334 0.584731 106.922 0 105.45 0ZM107.3 27.75C107.3 28.2406 107.105 28.7112 106.758 29.0581C106.411 29.4051 105.941 29.6 105.45 29.6H64.75C64.2593 29.6 63.7887 29.4051 63.4418 29.0581C63.0949 28.7112 62.9 28.2406 62.9 27.75V5.55C62.9 5.05935 63.0949 4.58879 63.4418 4.24185C63.7887 3.89491 64.2593 3.7 64.75 3.7H105.45C105.941 3.7 106.411 3.89491 106.758 4.24185C107.105 4.58879 107.3 5.05935 107.3 5.55V27.75Z" fill="#979797"/>
<path d="M74 7.3999H103.6V11.0999H74V7.3999Z" fill="#979797"/>
<path d="M74 14.7998H103.6V18.4998H74V14.7998Z" fill="#979797"/>
<path d="M74 22.2002H103.6V25.9002H74V22.2002Z" fill="#979797"/>
<path d="M66.6 7.3999H70.3V11.0999H66.6V7.3999Z" fill="#979797"/>
<path d="M66.6 14.7998H70.3V18.4998H66.6V14.7998Z" fill="#979797"/>
<path d="M66.6 22.2002H70.3V25.9002H66.6V22.2002Z" fill="#979797"/>
<path d="M83.25 48.0999C83.25 49.5719 82.6653 50.9835 81.6244 52.0243C80.5836 53.0652 79.172 53.6499 77.7 53.6499H55.5V57.3499H77.7C80.1524 57.347 82.5034 56.3715 84.2375 54.6374C85.9716 52.9033 86.9471 50.5523 86.95 48.0999V44.3999H83.25V48.0999Z" fill="#979797"/>
<path d="M83.25 37H86.95V40.7H83.25V37Z" fill="#979797"/>
</svg>
