<svg width="110" height="110" viewBox="0 0 110 110" fill="none" xmlns="http://www.w3.org/2000/svg">
<g clip-path="url(#clip0)">
<path d="M38.346 22.2828C39.078 22.7881 40.0819 22.604 40.5875 21.8714L52.8122 4.15096C53.2131 3.5696 53.8741 3.22263 54.5803 3.22263C55.2865 3.22263 55.9476 3.5696 56.3485 4.15096L75.6422 32.1178C75.955 32.5711 76.4581 32.8143 76.9701 32.8143C77.2855 32.8143 77.6043 32.722 77.8836 32.5292C78.616 32.0239 78.8003 31.0204 78.295 30.288L59.0016 2.32115C57.9989 0.867747 56.3461 0 54.5805 0C52.8148 0 51.1622 0.867747 50.1595 2.32115L37.9348 20.0415C37.4295 20.7739 37.6136 21.7775 38.346 22.2828V22.2828Z" fill="#979797"/>
<path d="M34.847 57.9923C31.9043 57.9923 29.5101 60.3865 29.5101 63.329V68.9925H29.3318C28.4417 68.9925 27.7205 69.714 27.7205 70.6039C27.7205 71.4937 28.4417 72.2152 29.3318 72.2152H40.5082C41.3983 72.2152 42.1195 71.4937 42.1195 70.6039C42.1195 69.714 41.3983 68.9925 40.5082 68.9925H40.1838V63.329C40.184 60.3863 37.7898 57.9923 34.847 57.9923ZM32.7328 63.329C32.7328 62.1633 33.6813 61.215 34.847 61.215C36.0128 61.215 36.9613 62.1635 36.9613 63.329V68.9925H32.7328V63.329Z" fill="#979797"/>
<path d="M74.0991 57.9923C71.1566 57.9923 68.7624 60.3865 68.7624 63.329V68.9925H68.4377C67.5476 68.9925 66.8264 69.714 66.8264 70.6039C66.8264 71.4937 67.5476 72.2152 68.4377 72.2152H79.6141C80.5042 72.2152 81.2255 71.4937 81.2255 70.6039C81.2255 69.714 80.5042 68.9925 79.6141 68.9925H79.4358V63.329C79.436 60.3863 77.042 57.9923 74.0991 57.9923V57.9923ZM71.985 63.329C71.985 62.1633 72.9334 61.215 74.0991 61.215C75.2648 61.215 76.2134 62.1635 76.2134 63.329V68.9925H71.985V63.329Z" fill="#979797"/>
<path d="M59.9784 62.4833C61.9552 62.4833 63.5637 60.875 63.5637 58.898V48.1025C63.5637 46.1255 61.9554 44.5172 59.9784 44.5172H49.183C47.2062 44.5172 45.5977 46.1255 45.5977 48.1025V58.898C45.5977 60.875 47.206 62.4833 49.183 62.4833H59.9784ZM59.9784 59.2606H56.192V55.1116H60.3411V58.898C60.3409 59.098 60.1782 59.2606 59.9784 59.2606ZM60.3409 48.1025V51.8889H56.1918V47.7399H59.9782C60.1782 47.7399 60.3409 47.9027 60.3409 48.1025V48.1025ZM49.183 47.7399H52.9694V51.8889H48.8203V48.1025C48.8203 47.9027 48.9829 47.7399 49.183 47.7399V47.7399ZM48.8203 58.898V55.1116H52.9694V59.2606H49.183C48.9829 59.2606 48.8203 59.098 48.8203 58.898V58.898Z" fill="#979797"/>
<path d="M24.2569 37.9512C30.5745 37.9512 35.7142 32.8116 35.7142 26.4939C35.7142 24.8497 35.0602 22.9166 33.7147 20.5836C33.2699 19.8125 32.2847 19.5483 31.5138 19.9928C30.743 20.4375 30.4785 21.4228 30.923 22.1936C32.2194 24.4413 32.4916 25.7727 32.4916 26.4939C32.4916 31.0344 28.7976 34.7286 24.2569 34.7286C19.7162 34.7286 16.0222 31.0346 16.0222 26.4939C16.0222 26.061 16.1234 25.349 16.5535 24.28L17.7396 24.5672C18.2097 24.6813 18.7062 24.5777 19.0916 24.2858C19.4773 23.9938 19.7115 23.5439 19.7293 23.0607L19.7589 22.2594C19.8462 19.8884 20.7438 17.5952 22.2863 15.8023C23.0361 14.9307 23.7243 14.1757 24.2571 13.6062C24.9854 14.3844 25.9754 15.4794 27.0296 16.753C27.5972 17.4385 28.6132 17.5344 29.2984 16.9668C29.9839 16.3994 30.0797 15.3836 29.5121 14.698C27.9567 12.8188 26.5331 11.3095 25.8222 10.5761C25.4132 10.1545 24.8423 9.91284 24.2569 9.91284C24.2567 9.91284 24.2562 9.91284 24.256 9.91284C23.6704 9.91306 23.1002 10.155 22.6915 10.5765C22.1587 11.1263 21.08 12.263 19.8434 13.7003C18.0787 15.7514 16.9595 18.3022 16.6308 20.9828L16.4407 20.9368C15.4602 20.6996 14.4315 21.1893 13.9945 22.1017C13.1906 23.7807 12.7996 25.2173 12.7996 26.4937C12.7996 32.8116 17.9392 37.9512 24.2569 37.9512V37.9512Z" fill="#979797"/>
<path d="M87.0683 44.0817C90.9376 44.0817 94.0855 40.9338 94.0855 37.0644C94.0855 36.2521 93.8476 35.3607 93.3587 34.3406C93.0721 33.7406 92.4967 33.3466 91.8638 33.2686C91.5795 31.9069 90.9539 30.626 90.0421 29.5666C89.3505 28.7624 88.7472 28.1267 88.449 27.8193C88.0883 27.4476 87.5852 27.2343 87.068 27.2343C86.5509 27.2343 86.0473 27.4476 85.6866 27.8197C83.5818 29.9905 80.051 34.0779 80.051 37.0644C80.051 40.9338 83.1989 44.0817 87.0683 44.0817V44.0817ZM87.0667 31.0623C87.2337 31.2484 87.4129 31.4516 87.5993 31.6682C88.3393 32.5282 88.77 33.6284 88.8119 34.766L88.828 35.2058C88.8459 35.6892 89.0798 36.1391 89.4655 36.4311C89.8509 36.723 90.3472 36.8262 90.8166 36.7129C90.8538 36.8756 90.863 36.9903 90.863 37.0642C90.863 39.1566 89.1608 40.8588 87.0685 40.8588C84.9763 40.8588 83.2741 39.1566 83.2741 37.0642C83.2737 35.9771 84.8214 33.5569 87.0667 31.0623Z" fill="#979797"/>
<path d="M97.3848 97.0223C102.401 97.0223 106.483 92.9409 106.483 87.9243C106.483 86.8942 106.173 85.7471 105.536 84.4181C105.166 83.6447 104.343 83.1944 103.509 83.2775C103.191 81.3145 102.335 79.4576 101.033 77.9449C100.09 76.8479 99.2621 75.9753 98.8528 75.5529C98.8526 75.5529 98.8526 75.5527 98.8524 75.5527C98.4693 75.1576 97.9346 74.9307 97.385 74.9307C97.2372 74.9307 97.0905 74.9485 96.9474 74.9801V72.6798H103.545C104.327 72.6798 105.038 72.2499 105.402 71.5577C105.766 70.8655 105.716 70.0355 105.272 69.391L90.3962 47.8281C89.8907 47.0957 88.8876 46.9114 88.1547 47.4167C87.4223 47.922 87.238 48.9256 87.7433 49.658L101.402 69.4572H96.1821L55.907 11.077C55.6062 10.6411 55.1103 10.3807 54.5805 10.3807C54.0507 10.3807 53.5551 10.6411 53.2541 11.077L12.9792 69.4572H7.75892L24.4494 45.2642C24.9547 44.5318 24.7703 43.5283 24.0379 43.023C23.3055 42.5175 22.3018 42.7016 21.7965 43.4344L3.88897 69.3916C3.44532 70.0355 3.39548 70.8654 3.7592 71.5579C4.12272 72.2501 4.83449 72.68 5.61651 72.68H12.2139V77.4149C12.2139 78.3048 12.9351 79.0262 13.8252 79.0262C14.7153 79.0262 15.4365 78.3048 15.4365 77.4149V71.5703L54.5805 14.8295L93.7245 71.5703V77.9505C91.2622 80.8086 88.2869 84.8899 88.2869 87.9243C88.2869 88.7448 88.3979 89.5395 88.6025 90.2962H79.8515C78.9614 90.2962 78.2402 91.0176 78.2402 91.9075C78.2402 92.7974 78.9614 93.5188 79.8515 93.5188H90.2181C91.1387 94.6955 92.3412 95.6402 93.7243 96.2508V99.2732H63.4011V93.519H72.9848C73.8748 93.519 74.5961 92.7976 74.5961 91.9077C74.5961 91.0179 73.8748 90.2964 72.9848 90.2964H63.4011V85.8041C63.4011 80.8812 59.3958 76.8761 54.4729 76.8761C53.6885 76.8761 52.9174 76.9799 52.1685 77.1803C51.8965 76.2414 51.4279 75.363 50.7864 74.617C50.2375 73.9789 49.7556 73.4711 49.5173 73.2251C49.5171 73.2248 49.5167 73.2244 49.5165 73.224C49.1682 72.8654 48.6825 72.6598 48.1834 72.6598C47.6845 72.6598 47.1983 72.8656 46.8494 73.2248C45.1543 74.973 42.3107 78.2751 42.3107 80.7497C42.3107 83.0393 43.6285 85.0257 45.5449 85.9938V90.2962H15.4365V84.2815C15.4365 83.3916 14.7153 82.6702 13.8252 82.6702C12.9351 82.6702 12.2139 83.3916 12.2139 84.2815V99.2729H11.0161C9.28387 99.2729 7.87472 100.682 7.87472 102.414V106.859C7.87472 108.591 9.28408 110 11.0161 110H97.9303C99.6625 110 101.072 108.591 101.072 106.859V102.414C101.072 100.682 99.6623 99.2729 97.9303 99.2729H96.9474V97.0111C97.0922 97.018 97.2381 97.0223 97.3848 97.0223ZM60.1784 85.8039V99.2729H48.7675V86.5932C51.7326 86.2991 54.0559 83.7908 54.0559 80.7499C54.0559 80.5454 54.0363 80.3348 54.0015 80.1191C54.1577 80.1062 54.315 80.0989 54.4731 80.0989C57.619 80.0987 60.1784 82.6579 60.1784 85.8039ZM48.181 76.5315C48.2343 76.5923 48.2884 76.6548 48.3434 76.7188C48.8765 77.3384 49.1867 78.1312 49.2168 78.9512L49.2297 79.298C49.2475 79.7814 49.4817 80.2311 49.8671 80.523C50.1477 80.7355 50.4867 80.8481 50.8315 80.8498C50.7791 82.265 49.6112 83.4 48.1836 83.4C47.9855 83.4 47.793 83.3764 47.6074 83.3351C47.5932 83.3317 47.5792 83.3274 47.5649 83.3241C46.4015 83.0444 45.5335 81.9979 45.5335 80.7501C45.5333 80.1153 46.4545 78.4971 48.181 76.5315V76.5315ZM15.4365 93.5188H45.5451V99.2729H15.4365V93.5188ZM97.8488 106.777H11.0971V102.496H97.8488V106.777ZM91.5095 87.9243C91.5095 86.1018 93.8092 82.7387 96.4936 79.6796C96.5289 79.6433 96.5624 79.6052 96.594 79.5657C96.8543 79.2707 97.118 78.9785 97.3835 78.6913C97.7354 79.0733 98.149 79.5337 98.5903 80.0465C99.7064 81.3439 100.356 83.0032 100.419 84.7189L100.441 85.3282C100.459 85.8116 100.693 86.2612 101.079 86.5534C101.464 86.8454 101.96 86.949 102.431 86.8349L103.002 86.6965C103.207 87.277 103.26 87.6723 103.26 87.9246C103.26 91.1642 100.624 93.7998 97.3846 93.7998C94.145 93.7998 91.5095 91.1639 91.5095 87.9243Z" fill="#979797"/>
</g>
<defs>
<clipPath id="clip0">
<rect width="110" height="110" fill="white"/>
</clipPath>
</defs>
</svg>
