<?xml version="1.0" encoding="UTF-8"?>
<!DOCTYPE svg PUBLIC "-//W3C//DTD SVG 1.1//EN" "http://www.w3.org/Graphics/SVG/1.1/DTD/svg11.dtd">
<!-- Creator: CorelDRAW -->
<svg xmlns="http://www.w3.org/2000/svg" xml:space="preserve" width="100%" height="100%" version="1.1" style="shape-rendering:geometricPrecision; text-rendering:geometricPrecision; image-rendering:optimizeQuality; fill-rule:evenodd; clip-rule:evenodd"
viewBox="0 0 21000 7000"
 xmlns:xlink="http://www.w3.org/1999/xlink"
 xmlns:xodm="http://www.corel.com/coreldraw/odm/2003">
 <defs>
  <style type="text/css">
   <![CDATA[
    .fil0 {fill:white}
   ]]>
  </style>
 </defs>
 <g id="Camada_x0020_1">
  <metadata id="CorelCorpID_0Corel-Layer"/>
  <g id="_105553315528480">
   <path class="fil0" d="M2131.55 60.2c1.84,0 3.65,0 5.46,0 853.88,0 1624.88,512.02 1955.61,1299.07l-141.71 61.1c-305.25,-728.08 -1018.13,-1202.38 -1807.84,-1202.38 -3.83,0 -7.65,0 -11.48,0 -9.08,0.08 -18.88,-0.16 -28.21,-0.16 -515.11,0 -1008.99,208.33 -1368.49,577.17 -368.31,359.45 -576.41,852.87 -576.41,1367.74 0,9.57 0.24,19.59 0.24,28.92l0 616.89 2322.42 0.07 0 154.43 -2322.45 0 0 4019.54 -158.67 0 0 -4790.86c0.03,-9.82 -0.22,-20.35 -0.22,-30.38 0,-556.29 225.88,-1089.02 625.49,-1475.85 386.86,-399.65 919.59,-625.53 1475.88,-625.53 10.03,0 20.56,0.25 30.34,0.25l0.04 -0.02z"/>
   <polygon class="fil0" points="4385.28,2674.55 4543.95,2674.55 4543.95,6982.59 4385.28,6982.59 "/>
   <path class="fil0" d="M9635.2 4843.42c-0.03,9.67 0.22,20.26 0.22,30.09 0,559.53 -227.59,1095.89 -629.86,1484.54 -400.98,400.27 -945.63,625.4 -1512.5,625.4 -566.87,0 -1111.52,-225.13 -1512.62,-625.44 -399.69,-389.61 -625.51,-924.94 -625.51,-1483.28 0,-10.37 0.26,-21.24 0.26,-31.35l-0.04 -4807.79 160.38 0 0 2679.69 1979.65 0 0 154.43 -1979.65 0 0 1973.71c0.74,1092.84 886.69,1979.03 1979.54,1980.49 1094.31,-0.49 1980.98,-887.17 1981.46,-1981.23l158.67 0.74z"/>
   <polygon class="fil0" points="14702.68,2707.64 10967.41,6823.91 14813,6823.91 14813,6982.59 10577.08,6982.59 14310.65,2865.47 10447.25,2865.47 10447.25,2707.64 "/>
   <path class="fil0" d="M16253.81 6353.82c-402.32,-389.52 -629.86,-926.22 -629.86,-1486.39 0,-10.61 0.25,-22.23 0.25,-32.58 2.1,-1184.42 963.16,-2143.9 2147.71,-2144.16 9.5,0.04 19.84,-0.22 29.68,-0.22 559.76,0 1096.09,227.44 1484.9,629.87 402.39,388.76 629.83,925.09 629.83,1484.85 0,9.84 -0.26,20.18 -0.26,29.76l0 84.85 -2935.9 -0.01 0 -162.07 2777.28 0c-14.28,-513.52 -233.96,-1001.04 -609.17,-1351.81 -369.92,-357.37 -865.17,-557.6 -1379.81,-557.6 -1096.43,0 -1985.59,889.14 -1985.59,1985.57 0,0.25 0,0.73 0,0.97 0,0.51 0,1.49 0,1.97 0,1097.83 890.3,1988.13 1988.13,1988.13 836.91,0 1584.48,-524.28 1869.43,-1311.19l150.2 52.61c-149.02,415.97 -424.98,775.54 -787.64,1027.61 -355.01,253.06 -780.97,389.49 -1217.17,389.49 -4.35,0 -8.7,0 -13.06,0 -10.33,-0.05 -21.95,0.21 -32.56,0.21 -560.19,0 -1096.89,-227.56 -1486.34,-629.89l-0.05 0.03z"/>
   <polygon class="fil0" points="20806.06,2674.55 20964.74,2674.55 20964.74,6982.59 20806.06,6982.59 "/>
  </g>
 </g>
</svg>

