<svg xmlns="http://www.w3.org/2000/svg" width="397.058" height="408.466" viewBox="0 0 397.058 408.466">
  <g id="Group_46" data-name="Group 46" transform="translate(0.471 0.471)" style="isolation: isolate">
    <path id="Path_80" data-name="Path 80" d="M1471.115,684.443a145.9,145.9,0,0,1-16.853,206.511,145.906,145.906,0,0,1,16.853-206.511" transform="translate(-1209.392 -653.758)" fill="rgba(0,43,119,0.5)" stroke="rgba(0,43,119,0.5)" stroke-width="1"/>
    <path id="Path_81" data-name="Path 81" d="M1576.509,780.365a102.612,102.612,0,0,1-144.02-11.618,102.616,102.616,0,0,1,144.02,11.618" transform="translate(-1180.302 -522.318)" fill="rgba(0,43,119,0.5)" stroke="rgba(0,43,119,0.5)" stroke-width="1"/>
    <path id="Path_82" data-name="Path 82" d="M1527.382,721.577c-5.906,39.745-43.093,67.222-83.1,61.364,5.9-39.742,43.093-67.238,83.1-61.364" transform="translate(-1154.532 -574.321)" fill="rgba(0,43,119,0.5)" stroke="rgba(0,43,119,0.5)" stroke-width="1"/>
    <path id="Path_83" data-name="Path 83" d="M1353.327,813.564c27.375-76.18,111.71-115.919,188.388-88.7-27.391,76.2-111.733,115.9-188.388,88.7" transform="translate(-1353.327 -584.154)" fill="rgba(0,43,119,0.5)" stroke="rgba(0,43,119,0.5)" stroke-width="1"/>
    <path id="Path_84" data-name="Path 84" d="M1398.519,674.811c53.135,18.872,80.834,76.97,61.864,129.783-53.147-18.853-80.828-76.964-61.864-129.783" transform="translate(-1267.608 -674.811)" fill="rgba(0,43,119,0.5)" stroke="rgba(0,43,119,0.5)" stroke-width="1"/>
    <path id="Path_85" data-name="Path 85" d="M1363.57,703.5c36.891-16.432,80.2-.077,96.741,36.626-36.878,16.432-80.213.054-96.741-36.626" transform="translate(-1330.939 -626.063)" fill="rgba(0,43,119,0.5)" stroke="rgba(0,43,119,0.5)" stroke-width="1"/>
    <path id="Path_86" data-name="Path 86" d="M1375.257,677.231a56.857,56.857,0,0,1,47.12,65.253,56.832,56.832,0,0,1-47.12-65.253" transform="translate(-1307.073 -669.522)" fill="rgba(0,43,119,0.5)" stroke="rgba(0,43,119,0.5)" stroke-width="1"/>
    <path id="Path_87" data-name="Path 87" d="M1566.35,868.974c-80.07,14.466-156.823-38.324-171.385-117.942,80.092-14.466,156.814,38.349,171.385,117.942" transform="translate(-1262.318 -513.428)" fill="rgba(0,43,119,0.5)" stroke="rgba(0,43,119,0.5)" stroke-width="1"/>
    <path id="Path_88" data-name="Path 88" d="M1366.61,868.012c-10.073-55.177,26.732-108.047,82.242-118.091,10.112,55.186-26.725,108.037-82.242,118.091" transform="translate(-1327.923 -510.644)" fill="rgba(0,43,119,0.5)" stroke="rgba(0,43,119,0.5)" stroke-width="1"/>
    <path id="Path_89" data-name="Path 89" d="M1422.853,871.115a72.44,72.44,0,0,1-16.381-101.589,72.448,72.448,0,0,1,16.381,101.589" transform="translate(-1267.587 -467.791)" fill="rgba(0,43,119,0.5)" stroke="rgba(0,43,119,0.5)" stroke-width="1"/>
    <path id="Path_90" data-name="Path 90" d="M1379.935,852.925a56.7,56.7,0,0,1,33.352-73.154,56.681,56.681,0,0,1-33.352,73.154" transform="translate(-1303.201 -445.398)" fill="rgba(0,43,119,0.5)" stroke="rgba(0,43,119,0.5)" stroke-width="1"/>
  </g>
</svg>
